%TF.GenerationSoftware,KiCad,Pcbnew,8.0.7*%
%TF.CreationDate,2025-02-03T20:19:39+05:30*%
%TF.ProjectId,MLX90632_v1.0,4d4c5839-3036-4333-925f-76312e302e6b,rev?*%
%TF.SameCoordinates,Original*%
%TF.FileFunction,Paste,Top*%
%TF.FilePolarity,Positive*%
%FSLAX46Y46*%
G04 Gerber Fmt 4.6, Leading zero omitted, Abs format (unit mm)*
G04 Created by KiCad (PCBNEW 8.0.7) date 2025-02-03 20:19:39*
%MOMM*%
%LPD*%
G01*
G04 APERTURE LIST*
G04 Aperture macros list*
%AMRoundRect*
0 Rectangle with rounded corners*
0 $1 Rounding radius*
0 $2 $3 $4 $5 $6 $7 $8 $9 X,Y pos of 4 corners*
0 Add a 4 corners polygon primitive as box body*
4,1,4,$2,$3,$4,$5,$6,$7,$8,$9,$2,$3,0*
0 Add four circle primitives for the rounded corners*
1,1,$1+$1,$2,$3*
1,1,$1+$1,$4,$5*
1,1,$1+$1,$6,$7*
1,1,$1+$1,$8,$9*
0 Add four rect primitives between the rounded corners*
20,1,$1+$1,$2,$3,$4,$5,0*
20,1,$1+$1,$4,$5,$6,$7,0*
20,1,$1+$1,$6,$7,$8,$9,0*
20,1,$1+$1,$8,$9,$2,$3,0*%
G04 Aperture macros list end*
%ADD10C,0.010000*%
%ADD11RoundRect,0.237500X0.237500X-0.250000X0.237500X0.250000X-0.237500X0.250000X-0.237500X-0.250000X0*%
%ADD12RoundRect,0.237500X-0.300000X-0.237500X0.300000X-0.237500X0.300000X0.237500X-0.300000X0.237500X0*%
G04 APERTURE END LIST*
D10*
%TO.C,U1*%
X133513000Y-83876000D02*
X133520000Y-83877000D01*
X133526000Y-83878000D01*
X133532000Y-83879000D01*
X133539000Y-83881000D01*
X133545000Y-83883000D01*
X133551000Y-83886000D01*
X133557000Y-83889000D01*
X133563000Y-83892000D01*
X133568000Y-83895000D01*
X133573000Y-83899000D01*
X133579000Y-83903000D01*
X133584000Y-83907000D01*
X133588000Y-83912000D01*
X133593000Y-83916000D01*
X133597000Y-83921000D01*
X133601000Y-83927000D01*
X133605000Y-83932000D01*
X133608000Y-83938000D01*
X133611000Y-83943000D01*
X133614000Y-83949000D01*
X133617000Y-83955000D01*
X133619000Y-83961000D01*
X133621000Y-83968000D01*
X133622000Y-83974000D01*
X133623000Y-83980000D01*
X133624000Y-83987000D01*
X133625000Y-83993000D01*
X133625000Y-84000000D01*
X133625000Y-84175000D01*
X133375000Y-84175000D01*
X133375000Y-84000000D01*
X133375000Y-83993000D01*
X133376000Y-83987000D01*
X133377000Y-83980000D01*
X133378000Y-83974000D01*
X133379000Y-83968000D01*
X133381000Y-83961000D01*
X133383000Y-83955000D01*
X133386000Y-83949000D01*
X133389000Y-83943000D01*
X133392000Y-83938000D01*
X133395000Y-83932000D01*
X133399000Y-83927000D01*
X133403000Y-83921000D01*
X133407000Y-83916000D01*
X133412000Y-83912000D01*
X133416000Y-83907000D01*
X133421000Y-83903000D01*
X133427000Y-83899000D01*
X133432000Y-83895000D01*
X133438000Y-83892000D01*
X133443000Y-83889000D01*
X133449000Y-83886000D01*
X133455000Y-83883000D01*
X133461000Y-83881000D01*
X133468000Y-83879000D01*
X133474000Y-83878000D01*
X133480000Y-83877000D01*
X133487000Y-83876000D01*
X133493000Y-83875000D01*
X133500000Y-83875000D01*
X133507000Y-83875000D01*
X133513000Y-83876000D01*
G36*
X133513000Y-83876000D02*
G01*
X133520000Y-83877000D01*
X133526000Y-83878000D01*
X133532000Y-83879000D01*
X133539000Y-83881000D01*
X133545000Y-83883000D01*
X133551000Y-83886000D01*
X133557000Y-83889000D01*
X133563000Y-83892000D01*
X133568000Y-83895000D01*
X133573000Y-83899000D01*
X133579000Y-83903000D01*
X133584000Y-83907000D01*
X133588000Y-83912000D01*
X133593000Y-83916000D01*
X133597000Y-83921000D01*
X133601000Y-83927000D01*
X133605000Y-83932000D01*
X133608000Y-83938000D01*
X133611000Y-83943000D01*
X133614000Y-83949000D01*
X133617000Y-83955000D01*
X133619000Y-83961000D01*
X133621000Y-83968000D01*
X133622000Y-83974000D01*
X133623000Y-83980000D01*
X133624000Y-83987000D01*
X133625000Y-83993000D01*
X133625000Y-84000000D01*
X133625000Y-84175000D01*
X133375000Y-84175000D01*
X133375000Y-84000000D01*
X133375000Y-83993000D01*
X133376000Y-83987000D01*
X133377000Y-83980000D01*
X133378000Y-83974000D01*
X133379000Y-83968000D01*
X133381000Y-83961000D01*
X133383000Y-83955000D01*
X133386000Y-83949000D01*
X133389000Y-83943000D01*
X133392000Y-83938000D01*
X133395000Y-83932000D01*
X133399000Y-83927000D01*
X133403000Y-83921000D01*
X133407000Y-83916000D01*
X133412000Y-83912000D01*
X133416000Y-83907000D01*
X133421000Y-83903000D01*
X133427000Y-83899000D01*
X133432000Y-83895000D01*
X133438000Y-83892000D01*
X133443000Y-83889000D01*
X133449000Y-83886000D01*
X133455000Y-83883000D01*
X133461000Y-83881000D01*
X133468000Y-83879000D01*
X133474000Y-83878000D01*
X133480000Y-83877000D01*
X133487000Y-83876000D01*
X133493000Y-83875000D01*
X133500000Y-83875000D01*
X133507000Y-83875000D01*
X133513000Y-83876000D01*
G37*
X133013000Y-83876000D02*
X133020000Y-83877000D01*
X133026000Y-83878000D01*
X133032000Y-83879000D01*
X133039000Y-83881000D01*
X133045000Y-83883000D01*
X133051000Y-83886000D01*
X133057000Y-83889000D01*
X133063000Y-83892000D01*
X133068000Y-83895000D01*
X133073000Y-83899000D01*
X133079000Y-83903000D01*
X133084000Y-83907000D01*
X133088000Y-83912000D01*
X133093000Y-83916000D01*
X133097000Y-83921000D01*
X133101000Y-83927000D01*
X133105000Y-83932000D01*
X133108000Y-83938000D01*
X133111000Y-83943000D01*
X133114000Y-83949000D01*
X133117000Y-83955000D01*
X133119000Y-83961000D01*
X133121000Y-83968000D01*
X133122000Y-83974000D01*
X133123000Y-83980000D01*
X133124000Y-83987000D01*
X133125000Y-83993000D01*
X133125000Y-84000000D01*
X133125000Y-84175000D01*
X132875000Y-84175000D01*
X132875000Y-84000000D01*
X132875000Y-83993000D01*
X132876000Y-83987000D01*
X132877000Y-83980000D01*
X132878000Y-83974000D01*
X132879000Y-83968000D01*
X132881000Y-83961000D01*
X132883000Y-83955000D01*
X132886000Y-83949000D01*
X132889000Y-83943000D01*
X132892000Y-83938000D01*
X132895000Y-83932000D01*
X132899000Y-83927000D01*
X132903000Y-83921000D01*
X132907000Y-83916000D01*
X132912000Y-83912000D01*
X132916000Y-83907000D01*
X132921000Y-83903000D01*
X132927000Y-83899000D01*
X132932000Y-83895000D01*
X132938000Y-83892000D01*
X132943000Y-83889000D01*
X132949000Y-83886000D01*
X132955000Y-83883000D01*
X132961000Y-83881000D01*
X132968000Y-83879000D01*
X132974000Y-83878000D01*
X132980000Y-83877000D01*
X132987000Y-83876000D01*
X132993000Y-83875000D01*
X133000000Y-83875000D01*
X133007000Y-83875000D01*
X133013000Y-83876000D01*
G36*
X133013000Y-83876000D02*
G01*
X133020000Y-83877000D01*
X133026000Y-83878000D01*
X133032000Y-83879000D01*
X133039000Y-83881000D01*
X133045000Y-83883000D01*
X133051000Y-83886000D01*
X133057000Y-83889000D01*
X133063000Y-83892000D01*
X133068000Y-83895000D01*
X133073000Y-83899000D01*
X133079000Y-83903000D01*
X133084000Y-83907000D01*
X133088000Y-83912000D01*
X133093000Y-83916000D01*
X133097000Y-83921000D01*
X133101000Y-83927000D01*
X133105000Y-83932000D01*
X133108000Y-83938000D01*
X133111000Y-83943000D01*
X133114000Y-83949000D01*
X133117000Y-83955000D01*
X133119000Y-83961000D01*
X133121000Y-83968000D01*
X133122000Y-83974000D01*
X133123000Y-83980000D01*
X133124000Y-83987000D01*
X133125000Y-83993000D01*
X133125000Y-84000000D01*
X133125000Y-84175000D01*
X132875000Y-84175000D01*
X132875000Y-84000000D01*
X132875000Y-83993000D01*
X132876000Y-83987000D01*
X132877000Y-83980000D01*
X132878000Y-83974000D01*
X132879000Y-83968000D01*
X132881000Y-83961000D01*
X132883000Y-83955000D01*
X132886000Y-83949000D01*
X132889000Y-83943000D01*
X132892000Y-83938000D01*
X132895000Y-83932000D01*
X132899000Y-83927000D01*
X132903000Y-83921000D01*
X132907000Y-83916000D01*
X132912000Y-83912000D01*
X132916000Y-83907000D01*
X132921000Y-83903000D01*
X132927000Y-83899000D01*
X132932000Y-83895000D01*
X132938000Y-83892000D01*
X132943000Y-83889000D01*
X132949000Y-83886000D01*
X132955000Y-83883000D01*
X132961000Y-83881000D01*
X132968000Y-83879000D01*
X132974000Y-83878000D01*
X132980000Y-83877000D01*
X132987000Y-83876000D01*
X132993000Y-83875000D01*
X133000000Y-83875000D01*
X133007000Y-83875000D01*
X133013000Y-83876000D01*
G37*
X132513000Y-83876000D02*
X132520000Y-83877000D01*
X132526000Y-83878000D01*
X132532000Y-83879000D01*
X132539000Y-83881000D01*
X132545000Y-83883000D01*
X132551000Y-83886000D01*
X132557000Y-83889000D01*
X132562000Y-83892000D01*
X132568000Y-83895000D01*
X132573000Y-83899000D01*
X132579000Y-83903000D01*
X132584000Y-83907000D01*
X132588000Y-83912000D01*
X132593000Y-83916000D01*
X132597000Y-83921000D01*
X132601000Y-83927000D01*
X132605000Y-83932000D01*
X132608000Y-83938000D01*
X132611000Y-83943000D01*
X132614000Y-83949000D01*
X132617000Y-83955000D01*
X132619000Y-83961000D01*
X132621000Y-83968000D01*
X132622000Y-83974000D01*
X132623000Y-83980000D01*
X132624000Y-83987000D01*
X132625000Y-83993000D01*
X132625000Y-84000000D01*
X132625000Y-84175000D01*
X132375000Y-84175000D01*
X132375000Y-84000000D01*
X132375000Y-83993000D01*
X132376000Y-83987000D01*
X132377000Y-83980000D01*
X132378000Y-83974000D01*
X132379000Y-83968000D01*
X132381000Y-83961000D01*
X132383000Y-83955000D01*
X132386000Y-83949000D01*
X132389000Y-83943000D01*
X132392000Y-83938000D01*
X132395000Y-83932000D01*
X132399000Y-83927000D01*
X132403000Y-83921000D01*
X132407000Y-83916000D01*
X132412000Y-83912000D01*
X132416000Y-83907000D01*
X132421000Y-83903000D01*
X132427000Y-83899000D01*
X132432000Y-83895000D01*
X132438000Y-83892000D01*
X132443000Y-83889000D01*
X132449000Y-83886000D01*
X132455000Y-83883000D01*
X132461000Y-83881000D01*
X132468000Y-83879000D01*
X132474000Y-83878000D01*
X132480000Y-83877000D01*
X132487000Y-83876000D01*
X132493000Y-83875000D01*
X132500000Y-83875000D01*
X132507000Y-83875000D01*
X132513000Y-83876000D01*
G36*
X132513000Y-83876000D02*
G01*
X132520000Y-83877000D01*
X132526000Y-83878000D01*
X132532000Y-83879000D01*
X132539000Y-83881000D01*
X132545000Y-83883000D01*
X132551000Y-83886000D01*
X132557000Y-83889000D01*
X132562000Y-83892000D01*
X132568000Y-83895000D01*
X132573000Y-83899000D01*
X132579000Y-83903000D01*
X132584000Y-83907000D01*
X132588000Y-83912000D01*
X132593000Y-83916000D01*
X132597000Y-83921000D01*
X132601000Y-83927000D01*
X132605000Y-83932000D01*
X132608000Y-83938000D01*
X132611000Y-83943000D01*
X132614000Y-83949000D01*
X132617000Y-83955000D01*
X132619000Y-83961000D01*
X132621000Y-83968000D01*
X132622000Y-83974000D01*
X132623000Y-83980000D01*
X132624000Y-83987000D01*
X132625000Y-83993000D01*
X132625000Y-84000000D01*
X132625000Y-84175000D01*
X132375000Y-84175000D01*
X132375000Y-84000000D01*
X132375000Y-83993000D01*
X132376000Y-83987000D01*
X132377000Y-83980000D01*
X132378000Y-83974000D01*
X132379000Y-83968000D01*
X132381000Y-83961000D01*
X132383000Y-83955000D01*
X132386000Y-83949000D01*
X132389000Y-83943000D01*
X132392000Y-83938000D01*
X132395000Y-83932000D01*
X132399000Y-83927000D01*
X132403000Y-83921000D01*
X132407000Y-83916000D01*
X132412000Y-83912000D01*
X132416000Y-83907000D01*
X132421000Y-83903000D01*
X132427000Y-83899000D01*
X132432000Y-83895000D01*
X132438000Y-83892000D01*
X132443000Y-83889000D01*
X132449000Y-83886000D01*
X132455000Y-83883000D01*
X132461000Y-83881000D01*
X132468000Y-83879000D01*
X132474000Y-83878000D01*
X132480000Y-83877000D01*
X132487000Y-83876000D01*
X132493000Y-83875000D01*
X132500000Y-83875000D01*
X132507000Y-83875000D01*
X132513000Y-83876000D01*
G37*
X132013000Y-83876000D02*
X132020000Y-83877000D01*
X132026000Y-83878000D01*
X132032000Y-83879000D01*
X132039000Y-83881000D01*
X132045000Y-83883000D01*
X132051000Y-83886000D01*
X132057000Y-83889000D01*
X132062000Y-83892000D01*
X132068000Y-83895000D01*
X132073000Y-83899000D01*
X132079000Y-83903000D01*
X132084000Y-83907000D01*
X132088000Y-83912000D01*
X132093000Y-83916000D01*
X132097000Y-83921000D01*
X132101000Y-83927000D01*
X132105000Y-83932000D01*
X132108000Y-83938000D01*
X132111000Y-83943000D01*
X132114000Y-83949000D01*
X132117000Y-83955000D01*
X132119000Y-83961000D01*
X132121000Y-83968000D01*
X132122000Y-83974000D01*
X132123000Y-83980000D01*
X132124000Y-83987000D01*
X132125000Y-83993000D01*
X132125000Y-84000000D01*
X132125000Y-84175000D01*
X131875000Y-84175000D01*
X131875000Y-84000000D01*
X131875000Y-83993000D01*
X131876000Y-83987000D01*
X131877000Y-83980000D01*
X131878000Y-83974000D01*
X131879000Y-83968000D01*
X131881000Y-83961000D01*
X131883000Y-83955000D01*
X131886000Y-83949000D01*
X131889000Y-83943000D01*
X131892000Y-83938000D01*
X131895000Y-83932000D01*
X131899000Y-83927000D01*
X131903000Y-83921000D01*
X131907000Y-83916000D01*
X131912000Y-83912000D01*
X131916000Y-83907000D01*
X131921000Y-83903000D01*
X131927000Y-83899000D01*
X131932000Y-83895000D01*
X131937000Y-83892000D01*
X131943000Y-83889000D01*
X131949000Y-83886000D01*
X131955000Y-83883000D01*
X131961000Y-83881000D01*
X131968000Y-83879000D01*
X131974000Y-83878000D01*
X131980000Y-83877000D01*
X131987000Y-83876000D01*
X131993000Y-83875000D01*
X132000000Y-83875000D01*
X132007000Y-83875000D01*
X132013000Y-83876000D01*
G36*
X132013000Y-83876000D02*
G01*
X132020000Y-83877000D01*
X132026000Y-83878000D01*
X132032000Y-83879000D01*
X132039000Y-83881000D01*
X132045000Y-83883000D01*
X132051000Y-83886000D01*
X132057000Y-83889000D01*
X132062000Y-83892000D01*
X132068000Y-83895000D01*
X132073000Y-83899000D01*
X132079000Y-83903000D01*
X132084000Y-83907000D01*
X132088000Y-83912000D01*
X132093000Y-83916000D01*
X132097000Y-83921000D01*
X132101000Y-83927000D01*
X132105000Y-83932000D01*
X132108000Y-83938000D01*
X132111000Y-83943000D01*
X132114000Y-83949000D01*
X132117000Y-83955000D01*
X132119000Y-83961000D01*
X132121000Y-83968000D01*
X132122000Y-83974000D01*
X132123000Y-83980000D01*
X132124000Y-83987000D01*
X132125000Y-83993000D01*
X132125000Y-84000000D01*
X132125000Y-84175000D01*
X131875000Y-84175000D01*
X131875000Y-84000000D01*
X131875000Y-83993000D01*
X131876000Y-83987000D01*
X131877000Y-83980000D01*
X131878000Y-83974000D01*
X131879000Y-83968000D01*
X131881000Y-83961000D01*
X131883000Y-83955000D01*
X131886000Y-83949000D01*
X131889000Y-83943000D01*
X131892000Y-83938000D01*
X131895000Y-83932000D01*
X131899000Y-83927000D01*
X131903000Y-83921000D01*
X131907000Y-83916000D01*
X131912000Y-83912000D01*
X131916000Y-83907000D01*
X131921000Y-83903000D01*
X131927000Y-83899000D01*
X131932000Y-83895000D01*
X131937000Y-83892000D01*
X131943000Y-83889000D01*
X131949000Y-83886000D01*
X131955000Y-83883000D01*
X131961000Y-83881000D01*
X131968000Y-83879000D01*
X131974000Y-83878000D01*
X131980000Y-83877000D01*
X131987000Y-83876000D01*
X131993000Y-83875000D01*
X132000000Y-83875000D01*
X132007000Y-83875000D01*
X132013000Y-83876000D01*
G37*
X131513000Y-83876000D02*
X131520000Y-83877000D01*
X131526000Y-83878000D01*
X131532000Y-83879000D01*
X131539000Y-83881000D01*
X131545000Y-83883000D01*
X131551000Y-83886000D01*
X131557000Y-83889000D01*
X131562000Y-83892000D01*
X131568000Y-83895000D01*
X131573000Y-83899000D01*
X131579000Y-83903000D01*
X131584000Y-83907000D01*
X131588000Y-83912000D01*
X131593000Y-83916000D01*
X131597000Y-83921000D01*
X131601000Y-83927000D01*
X131605000Y-83932000D01*
X131608000Y-83938000D01*
X131611000Y-83943000D01*
X131614000Y-83949000D01*
X131617000Y-83955000D01*
X131619000Y-83961000D01*
X131621000Y-83968000D01*
X131622000Y-83974000D01*
X131623000Y-83980000D01*
X131624000Y-83987000D01*
X131625000Y-83993000D01*
X131625000Y-84000000D01*
X131625000Y-84175000D01*
X131375000Y-84175000D01*
X131375000Y-84000000D01*
X131375000Y-83993000D01*
X131376000Y-83987000D01*
X131377000Y-83980000D01*
X131378000Y-83974000D01*
X131379000Y-83968000D01*
X131381000Y-83961000D01*
X131383000Y-83955000D01*
X131386000Y-83949000D01*
X131389000Y-83943000D01*
X131392000Y-83938000D01*
X131395000Y-83932000D01*
X131399000Y-83927000D01*
X131403000Y-83921000D01*
X131407000Y-83916000D01*
X131412000Y-83912000D01*
X131416000Y-83907000D01*
X131421000Y-83903000D01*
X131427000Y-83899000D01*
X131432000Y-83895000D01*
X131437000Y-83892000D01*
X131443000Y-83889000D01*
X131449000Y-83886000D01*
X131455000Y-83883000D01*
X131461000Y-83881000D01*
X131468000Y-83879000D01*
X131474000Y-83878000D01*
X131480000Y-83877000D01*
X131487000Y-83876000D01*
X131493000Y-83875000D01*
X131500000Y-83875000D01*
X131507000Y-83875000D01*
X131513000Y-83876000D01*
G36*
X131513000Y-83876000D02*
G01*
X131520000Y-83877000D01*
X131526000Y-83878000D01*
X131532000Y-83879000D01*
X131539000Y-83881000D01*
X131545000Y-83883000D01*
X131551000Y-83886000D01*
X131557000Y-83889000D01*
X131562000Y-83892000D01*
X131568000Y-83895000D01*
X131573000Y-83899000D01*
X131579000Y-83903000D01*
X131584000Y-83907000D01*
X131588000Y-83912000D01*
X131593000Y-83916000D01*
X131597000Y-83921000D01*
X131601000Y-83927000D01*
X131605000Y-83932000D01*
X131608000Y-83938000D01*
X131611000Y-83943000D01*
X131614000Y-83949000D01*
X131617000Y-83955000D01*
X131619000Y-83961000D01*
X131621000Y-83968000D01*
X131622000Y-83974000D01*
X131623000Y-83980000D01*
X131624000Y-83987000D01*
X131625000Y-83993000D01*
X131625000Y-84000000D01*
X131625000Y-84175000D01*
X131375000Y-84175000D01*
X131375000Y-84000000D01*
X131375000Y-83993000D01*
X131376000Y-83987000D01*
X131377000Y-83980000D01*
X131378000Y-83974000D01*
X131379000Y-83968000D01*
X131381000Y-83961000D01*
X131383000Y-83955000D01*
X131386000Y-83949000D01*
X131389000Y-83943000D01*
X131392000Y-83938000D01*
X131395000Y-83932000D01*
X131399000Y-83927000D01*
X131403000Y-83921000D01*
X131407000Y-83916000D01*
X131412000Y-83912000D01*
X131416000Y-83907000D01*
X131421000Y-83903000D01*
X131427000Y-83899000D01*
X131432000Y-83895000D01*
X131437000Y-83892000D01*
X131443000Y-83889000D01*
X131449000Y-83886000D01*
X131455000Y-83883000D01*
X131461000Y-83881000D01*
X131468000Y-83879000D01*
X131474000Y-83878000D01*
X131480000Y-83877000D01*
X131487000Y-83876000D01*
X131493000Y-83875000D01*
X131500000Y-83875000D01*
X131507000Y-83875000D01*
X131513000Y-83876000D01*
G37*
X133625000Y-83150000D02*
X133375000Y-83150000D01*
X133375000Y-82900000D01*
X133625000Y-82900000D01*
X133625000Y-83150000D01*
G36*
X133625000Y-83150000D02*
G01*
X133375000Y-83150000D01*
X133375000Y-82900000D01*
X133625000Y-82900000D01*
X133625000Y-83150000D01*
G37*
X133625000Y-82150000D02*
X133375000Y-82150000D01*
X133375000Y-81900000D01*
X133625000Y-81900000D01*
X133625000Y-82150000D01*
G36*
X133625000Y-82150000D02*
G01*
X133375000Y-82150000D01*
X133375000Y-81900000D01*
X133625000Y-81900000D01*
X133625000Y-82150000D01*
G37*
X133125000Y-83150000D02*
X132875000Y-83150000D01*
X132875000Y-82900000D01*
X133125000Y-82900000D01*
X133125000Y-83150000D01*
G36*
X133125000Y-83150000D02*
G01*
X132875000Y-83150000D01*
X132875000Y-82900000D01*
X133125000Y-82900000D01*
X133125000Y-83150000D01*
G37*
X133125000Y-82650000D02*
X132875000Y-82650000D01*
X132875000Y-82400000D01*
X133125000Y-82400000D01*
X133125000Y-82650000D01*
G36*
X133125000Y-82650000D02*
G01*
X132875000Y-82650000D01*
X132875000Y-82400000D01*
X133125000Y-82400000D01*
X133125000Y-82650000D01*
G37*
X133125000Y-82150000D02*
X132875000Y-82150000D01*
X132875000Y-81900000D01*
X133125000Y-81900000D01*
X133125000Y-82150000D01*
G36*
X133125000Y-82150000D02*
G01*
X132875000Y-82150000D01*
X132875000Y-81900000D01*
X133125000Y-81900000D01*
X133125000Y-82150000D01*
G37*
X132625000Y-83150000D02*
X132375000Y-83150000D01*
X132375000Y-82900000D01*
X132625000Y-82900000D01*
X132625000Y-83150000D01*
G36*
X132625000Y-83150000D02*
G01*
X132375000Y-83150000D01*
X132375000Y-82900000D01*
X132625000Y-82900000D01*
X132625000Y-83150000D01*
G37*
X132625000Y-82650000D02*
X132375000Y-82650000D01*
X132375000Y-82400000D01*
X132625000Y-82400000D01*
X132625000Y-82650000D01*
G36*
X132625000Y-82650000D02*
G01*
X132375000Y-82650000D01*
X132375000Y-82400000D01*
X132625000Y-82400000D01*
X132625000Y-82650000D01*
G37*
X132625000Y-82150000D02*
X132375000Y-82150000D01*
X132375000Y-81900000D01*
X132625000Y-81900000D01*
X132625000Y-82150000D01*
G36*
X132625000Y-82150000D02*
G01*
X132375000Y-82150000D01*
X132375000Y-81900000D01*
X132625000Y-81900000D01*
X132625000Y-82150000D01*
G37*
X132125000Y-83150000D02*
X131875000Y-83150000D01*
X131875000Y-82900000D01*
X132125000Y-82900000D01*
X132125000Y-83150000D01*
G36*
X132125000Y-83150000D02*
G01*
X131875000Y-83150000D01*
X131875000Y-82900000D01*
X132125000Y-82900000D01*
X132125000Y-83150000D01*
G37*
X132125000Y-82650000D02*
X131875000Y-82650000D01*
X131875000Y-82400000D01*
X132125000Y-82400000D01*
X132125000Y-82650000D01*
G36*
X132125000Y-82650000D02*
G01*
X131875000Y-82650000D01*
X131875000Y-82400000D01*
X132125000Y-82400000D01*
X132125000Y-82650000D01*
G37*
X132125000Y-82150000D02*
X131875000Y-82150000D01*
X131875000Y-81900000D01*
X132125000Y-81900000D01*
X132125000Y-82150000D01*
G36*
X132125000Y-82150000D02*
G01*
X131875000Y-82150000D01*
X131875000Y-81900000D01*
X132125000Y-81900000D01*
X132125000Y-82150000D01*
G37*
X131625000Y-83150000D02*
X131375000Y-83150000D01*
X131375000Y-82900000D01*
X131625000Y-82900000D01*
X131625000Y-83150000D01*
G36*
X131625000Y-83150000D02*
G01*
X131375000Y-83150000D01*
X131375000Y-82900000D01*
X131625000Y-82900000D01*
X131625000Y-83150000D01*
G37*
X131625000Y-82150000D02*
X131375000Y-82150000D01*
X131375000Y-81900000D01*
X131625000Y-81900000D01*
X131625000Y-82150000D01*
G36*
X131625000Y-82150000D02*
G01*
X131375000Y-82150000D01*
X131375000Y-81900000D01*
X131625000Y-81900000D01*
X131625000Y-82150000D01*
G37*
%TD*%
D11*
%TO.C,R2*%
X136300000Y-86587500D03*
X136300000Y-84762500D03*
%TD*%
%TO.C,R1*%
X129750000Y-87337500D03*
X129750000Y-85512500D03*
%TD*%
D12*
%TO.C,C1*%
X131887500Y-86150000D03*
X133612500Y-86150000D03*
%TD*%
M02*
