%TF.GenerationSoftware,KiCad,Pcbnew,8.0.7*%
%TF.CreationDate,2025-02-03T20:19:39+05:30*%
%TF.ProjectId,MLX90632_v1.0,4d4c5839-3036-4333-925f-76312e302e6b,rev?*%
%TF.SameCoordinates,Original*%
%TF.FileFunction,Legend,Top*%
%TF.FilePolarity,Positive*%
%FSLAX46Y46*%
G04 Gerber Fmt 4.6, Leading zero omitted, Abs format (unit mm)*
G04 Created by KiCad (PCBNEW 8.0.7) date 2025-02-03 20:19:39*
%MOMM*%
%LPD*%
G01*
G04 APERTURE LIST*
%ADD10C,0.300000*%
%ADD11C,0.250000*%
%ADD12C,0.150000*%
%ADD13C,0.200000*%
%ADD14C,0.127000*%
%ADD15C,0.120000*%
%ADD16C,0.000000*%
G04 APERTURE END LIST*
D10*
G36*
X130921703Y-78270000D02*
G01*
X130632275Y-78270000D01*
X130217184Y-77214870D01*
X130497453Y-77214870D01*
X130714707Y-77826332D01*
X130779553Y-78023803D01*
X130843667Y-77834759D01*
X131063119Y-77214870D01*
X131333130Y-77214870D01*
X130921703Y-78270000D01*
G37*
G36*
X131503489Y-78270000D02*
G01*
X131503489Y-78035526D01*
X131846406Y-78035526D01*
X131846406Y-77193988D01*
X131547453Y-77355554D01*
X131465021Y-77144528D01*
X131892934Y-76933503D01*
X132103960Y-76933503D01*
X132103960Y-78035526D01*
X132399616Y-78035526D01*
X132399616Y-78270000D01*
X131503489Y-78270000D01*
G37*
G36*
X133074093Y-77894842D02*
G01*
X133147334Y-77907781D01*
X133154327Y-77910596D01*
X133217102Y-77951777D01*
X133218807Y-77953461D01*
X133260698Y-78014562D01*
X133261671Y-78016842D01*
X133276998Y-78090043D01*
X133277059Y-78095244D01*
X133263535Y-78167629D01*
X133261671Y-78172180D01*
X133220512Y-78233492D01*
X133218807Y-78235195D01*
X133156652Y-78276698D01*
X133154327Y-78277693D01*
X133082144Y-78293308D01*
X133074093Y-78293447D01*
X133001299Y-78279601D01*
X132996790Y-78277693D01*
X132935478Y-78236856D01*
X132933775Y-78235195D01*
X132892616Y-78174416D01*
X132891643Y-78172180D01*
X132876316Y-78100310D01*
X132876256Y-78095244D01*
X132889780Y-78021441D01*
X132891643Y-78016842D01*
X132932115Y-77955142D01*
X132933775Y-77953461D01*
X132994555Y-77911592D01*
X132996790Y-77910596D01*
X133068939Y-77894904D01*
X133074093Y-77894842D01*
G37*
G36*
X134323307Y-76914644D02*
G01*
X134399702Y-76930117D01*
X134453821Y-76948890D01*
X134520453Y-76984250D01*
X134579667Y-77032078D01*
X134615021Y-77070889D01*
X134658111Y-77133398D01*
X134691199Y-77199916D01*
X134718490Y-77275664D01*
X134720900Y-77283747D01*
X134739319Y-77360843D01*
X134750630Y-77436332D01*
X134757179Y-77518368D01*
X134759002Y-77595523D01*
X134756735Y-77675780D01*
X134749935Y-77751686D01*
X134736865Y-77831880D01*
X134722732Y-77890446D01*
X134699870Y-77960240D01*
X134668214Y-78030378D01*
X134625789Y-78098522D01*
X134617219Y-78109898D01*
X134565770Y-78166377D01*
X134507134Y-78212900D01*
X134447592Y-78246552D01*
X134375619Y-78273251D01*
X134296719Y-78288867D01*
X134218981Y-78293447D01*
X134144489Y-78288858D01*
X134067965Y-78273385D01*
X134013817Y-78254612D01*
X133947082Y-78219201D01*
X133887559Y-78171219D01*
X133851884Y-78132247D01*
X133808794Y-78069364D01*
X133775706Y-78002732D01*
X133748415Y-77927083D01*
X133746005Y-77919023D01*
X133740235Y-77894842D01*
X134001727Y-77894842D01*
X134032931Y-77964135D01*
X134079906Y-78023952D01*
X134094417Y-78036259D01*
X134159081Y-78070881D01*
X134233636Y-78082421D01*
X134305816Y-78069799D01*
X134340980Y-78053112D01*
X134398425Y-78004883D01*
X134427809Y-77964818D01*
X134460415Y-77897682D01*
X134482334Y-77826165D01*
X134484962Y-77814975D01*
X134497464Y-77742624D01*
X134503855Y-77668427D01*
X134505478Y-77602117D01*
X134504379Y-77572442D01*
X134503280Y-77543133D01*
X134001727Y-77894842D01*
X133740235Y-77894842D01*
X133727586Y-77841836D01*
X133716275Y-77766462D01*
X133709726Y-77684723D01*
X133707903Y-77607979D01*
X133708185Y-77598087D01*
X133961427Y-77598087D01*
X133961427Y-77642051D01*
X133963625Y-77683817D01*
X134468475Y-77308660D01*
X134435434Y-77239191D01*
X134387692Y-77179470D01*
X134373220Y-77167243D01*
X134304266Y-77131224D01*
X134233636Y-77121081D01*
X134161290Y-77133388D01*
X134126291Y-77149658D01*
X134069476Y-77197399D01*
X134040195Y-77237585D01*
X134007406Y-77304446D01*
X133985026Y-77375272D01*
X133982310Y-77386329D01*
X133968789Y-77464402D01*
X133962732Y-77538965D01*
X133961427Y-77598087D01*
X133708185Y-77598087D01*
X133710193Y-77527745D01*
X133717062Y-77451908D01*
X133730264Y-77371846D01*
X133744539Y-77313422D01*
X133767698Y-77243481D01*
X133799411Y-77173313D01*
X133841569Y-77105303D01*
X133850052Y-77093970D01*
X133901380Y-77037326D01*
X133960153Y-76990811D01*
X134020045Y-76957316D01*
X134092723Y-76930409D01*
X134171722Y-76914671D01*
X134249023Y-76910055D01*
X134323307Y-76914644D01*
G37*
G36*
X128777007Y-76870000D02*
G01*
X128752094Y-76114190D01*
X128742935Y-75812306D01*
X128678088Y-76005013D01*
X128528612Y-76471395D01*
X128369976Y-76471395D01*
X128235154Y-76005013D01*
X128178367Y-75812306D01*
X128171040Y-76107962D01*
X128148326Y-76870000D01*
X127933270Y-76870000D01*
X127999215Y-75533503D01*
X128285346Y-75533503D01*
X128404048Y-75923681D01*
X128460834Y-76143499D01*
X128517621Y-75936137D01*
X128642185Y-75533503D01*
X128933811Y-75533503D01*
X129000489Y-76870000D01*
X128777007Y-76870000D01*
G37*
G36*
X129243022Y-76870000D02*
G01*
X129243022Y-75533503D01*
X129500576Y-75533503D01*
X129500576Y-76658974D01*
X130069540Y-76658974D01*
X130069540Y-76870000D01*
X129243022Y-76870000D01*
G37*
G36*
X131022820Y-76870000D02*
G01*
X130763067Y-76377972D01*
X130507711Y-76870000D01*
X130201797Y-76870000D01*
X130614323Y-76183799D01*
X130227443Y-75533503D01*
X130525297Y-75533503D01*
X130769296Y-75971674D01*
X131005234Y-75533503D01*
X131303088Y-75533503D01*
X130920238Y-76177205D01*
X131345220Y-76870000D01*
X131022820Y-76870000D01*
G37*
G36*
X131988945Y-75514228D02*
G01*
X132066805Y-75528168D01*
X132106525Y-75539731D01*
X132174929Y-75570675D01*
X132235473Y-75615283D01*
X132260765Y-75640481D01*
X132305879Y-75700382D01*
X132340083Y-75766877D01*
X132362980Y-75829525D01*
X132382300Y-75908608D01*
X132393570Y-75989327D01*
X132398722Y-76068668D01*
X132399617Y-76121884D01*
X132397945Y-76198133D01*
X132392069Y-76277893D01*
X132381961Y-76351276D01*
X132372872Y-76396657D01*
X132351844Y-76473188D01*
X132325535Y-76541580D01*
X132297035Y-76596692D01*
X132254240Y-76659128D01*
X132200985Y-76715548D01*
X132180164Y-76732979D01*
X132117734Y-76775184D01*
X132049693Y-76808834D01*
X132029222Y-76816877D01*
X131954530Y-76840088D01*
X131881154Y-76854985D01*
X131851902Y-76859009D01*
X131774312Y-76866125D01*
X131700759Y-76869474D01*
X131656996Y-76870000D01*
X131501291Y-76870000D01*
X131501291Y-76658974D01*
X131684840Y-76658974D01*
X131762988Y-76656593D01*
X131837477Y-76648564D01*
X131885974Y-76638824D01*
X131959155Y-76613636D01*
X132016766Y-76579106D01*
X132067199Y-76525710D01*
X132091138Y-76481287D01*
X132112280Y-76410940D01*
X132123378Y-76335474D01*
X132125576Y-76307264D01*
X132055328Y-76339934D01*
X132001012Y-76357822D01*
X131926353Y-76373259D01*
X131859962Y-76377606D01*
X131783326Y-76373857D01*
X131707151Y-76361435D01*
X131681543Y-76354891D01*
X131611153Y-76327639D01*
X131546719Y-76285439D01*
X131543057Y-76282351D01*
X131491400Y-76225198D01*
X131454949Y-76158308D01*
X131452931Y-76153391D01*
X131431143Y-76077657D01*
X131422178Y-76002918D01*
X131421058Y-75962149D01*
X131421902Y-75950059D01*
X131682642Y-75950059D01*
X131690730Y-76024557D01*
X131723590Y-76095364D01*
X131740161Y-76113457D01*
X131804089Y-76151587D01*
X131881185Y-76166113D01*
X131899896Y-76166580D01*
X131959247Y-76161451D01*
X132021895Y-76147163D01*
X132081612Y-76125914D01*
X132131804Y-76100268D01*
X132129490Y-76023692D01*
X132121178Y-75946481D01*
X132119714Y-75937602D01*
X132101541Y-75865539D01*
X132080513Y-75819267D01*
X132032646Y-75761862D01*
X132009072Y-75745994D01*
X131938421Y-75723514D01*
X131899896Y-75721081D01*
X131825571Y-75731965D01*
X131810136Y-75737568D01*
X131747084Y-75778883D01*
X131741626Y-75784462D01*
X131702076Y-75846292D01*
X131698029Y-75856636D01*
X131683183Y-75931035D01*
X131682642Y-75950059D01*
X131421902Y-75950059D01*
X131426210Y-75888389D01*
X131443419Y-75814414D01*
X131457694Y-75777135D01*
X131495221Y-75708744D01*
X131543687Y-75649749D01*
X131559543Y-75634619D01*
X131621623Y-75587806D01*
X131687683Y-75553504D01*
X131715248Y-75542662D01*
X131791257Y-75521550D01*
X131866356Y-75511616D01*
X131912352Y-75510055D01*
X131988945Y-75514228D01*
G37*
G36*
X133169992Y-75514644D02*
G01*
X133246388Y-75530117D01*
X133300506Y-75548890D01*
X133367139Y-75584250D01*
X133426352Y-75632078D01*
X133461707Y-75670889D01*
X133504797Y-75733398D01*
X133537884Y-75799916D01*
X133565176Y-75875664D01*
X133567586Y-75883747D01*
X133586004Y-75960843D01*
X133597316Y-76036332D01*
X133603865Y-76118368D01*
X133605688Y-76195523D01*
X133603421Y-76275780D01*
X133596620Y-76351686D01*
X133583550Y-76431880D01*
X133569418Y-76490446D01*
X133546556Y-76560240D01*
X133514900Y-76630378D01*
X133472474Y-76698522D01*
X133463905Y-76709898D01*
X133412455Y-76766377D01*
X133353819Y-76812900D01*
X133294278Y-76846552D01*
X133222305Y-76873251D01*
X133143405Y-76888867D01*
X133065667Y-76893447D01*
X132991175Y-76888858D01*
X132914650Y-76873385D01*
X132860503Y-76854612D01*
X132793767Y-76819201D01*
X132734245Y-76771219D01*
X132698570Y-76732247D01*
X132655479Y-76669364D01*
X132622392Y-76602732D01*
X132595101Y-76527083D01*
X132592691Y-76519023D01*
X132586921Y-76494842D01*
X132848413Y-76494842D01*
X132879617Y-76564135D01*
X132926592Y-76623952D01*
X132941103Y-76636259D01*
X133005766Y-76670881D01*
X133080321Y-76682421D01*
X133152502Y-76669799D01*
X133187666Y-76653112D01*
X133245111Y-76604883D01*
X133274494Y-76564818D01*
X133307101Y-76497682D01*
X133329020Y-76426165D01*
X133331647Y-76414975D01*
X133344149Y-76342624D01*
X133350541Y-76268427D01*
X133352164Y-76202117D01*
X133351065Y-76172442D01*
X133349966Y-76143133D01*
X132848413Y-76494842D01*
X132586921Y-76494842D01*
X132574272Y-76441836D01*
X132562961Y-76366462D01*
X132556412Y-76284723D01*
X132554589Y-76207979D01*
X132554871Y-76198087D01*
X132808113Y-76198087D01*
X132808113Y-76242051D01*
X132810311Y-76283817D01*
X133315161Y-75908660D01*
X133282119Y-75839191D01*
X133234378Y-75779470D01*
X133219906Y-75767243D01*
X133150952Y-75731224D01*
X133080321Y-75721081D01*
X133007976Y-75733388D01*
X132972977Y-75749658D01*
X132916162Y-75797399D01*
X132886881Y-75837585D01*
X132854091Y-75904446D01*
X132831712Y-75975272D01*
X132828996Y-75986329D01*
X132815475Y-76064402D01*
X132809418Y-76138965D01*
X132808113Y-76198087D01*
X132554871Y-76198087D01*
X132556878Y-76127745D01*
X132563748Y-76051908D01*
X132576950Y-75971846D01*
X132591225Y-75913422D01*
X132614383Y-75843481D01*
X132646097Y-75773313D01*
X132688254Y-75705303D01*
X132696738Y-75693970D01*
X132748066Y-75637326D01*
X132806839Y-75590811D01*
X132866731Y-75557316D01*
X132939409Y-75530409D01*
X133018407Y-75514671D01*
X133095709Y-75510055D01*
X133169992Y-75514644D01*
G37*
G36*
X134621982Y-75744528D02*
G01*
X134442830Y-75744528D01*
X134364348Y-75747568D01*
X134290721Y-75757722D01*
X134255984Y-75766144D01*
X134184044Y-75794487D01*
X134133619Y-75828426D01*
X134083702Y-75885813D01*
X134062544Y-75926978D01*
X134041086Y-76000445D01*
X134031769Y-76069127D01*
X134029571Y-76096238D01*
X134098385Y-76063568D01*
X134151571Y-76045680D01*
X134226224Y-76030243D01*
X134295185Y-76025896D01*
X134373307Y-76029915D01*
X134449450Y-76043338D01*
X134486794Y-76054473D01*
X134558036Y-76086555D01*
X134617204Y-76129906D01*
X134624180Y-76136538D01*
X134672449Y-76196164D01*
X134704890Y-76262544D01*
X134706612Y-76267330D01*
X134725396Y-76338256D01*
X134733419Y-76411148D01*
X134734090Y-76440987D01*
X134728886Y-76515244D01*
X134711505Y-76589644D01*
X134697087Y-76627100D01*
X134659240Y-76695381D01*
X134610453Y-76754686D01*
X134594505Y-76769982D01*
X134532355Y-76816725D01*
X134466104Y-76850836D01*
X134438434Y-76861573D01*
X134361946Y-76882210D01*
X134286083Y-76891922D01*
X134239498Y-76893447D01*
X134154937Y-76888269D01*
X134078206Y-76872736D01*
X134009307Y-76846847D01*
X133938822Y-76803555D01*
X133878996Y-76746168D01*
X133836663Y-76685478D01*
X133803089Y-76613865D01*
X133778274Y-76531330D01*
X133764285Y-76454208D01*
X133756378Y-76369500D01*
X133754724Y-76307264D01*
X134022244Y-76307264D01*
X134024602Y-76385886D01*
X134033183Y-76463381D01*
X134036532Y-76481653D01*
X134057655Y-76553382D01*
X134080496Y-76597791D01*
X134132497Y-76651028D01*
X134153402Y-76662637D01*
X134227179Y-76681185D01*
X134255252Y-76682421D01*
X134329334Y-76671537D01*
X134344645Y-76665935D01*
X134407759Y-76624619D01*
X134413155Y-76619040D01*
X134453065Y-76556769D01*
X134457118Y-76546500D01*
X134471965Y-76472231D01*
X134472506Y-76453443D01*
X134463638Y-76378549D01*
X134460049Y-76365882D01*
X134424822Y-76301311D01*
X134421581Y-76297739D01*
X134359564Y-76255106D01*
X134354536Y-76253042D01*
X134281156Y-76237693D01*
X134257083Y-76236922D01*
X134191504Y-76243150D01*
X134128856Y-76259270D01*
X134070970Y-76281618D01*
X134022244Y-76307264D01*
X133754724Y-76307264D01*
X133754432Y-76296273D01*
X133755990Y-76221714D01*
X133761245Y-76143240D01*
X133767621Y-76086346D01*
X133780312Y-76013549D01*
X133799758Y-75939684D01*
X133812684Y-75902065D01*
X133844320Y-75831350D01*
X133884090Y-75766665D01*
X133896947Y-75749291D01*
X133948409Y-75693342D01*
X134009828Y-75645387D01*
X134029205Y-75633154D01*
X134098516Y-75598024D01*
X134170867Y-75571929D01*
X134216783Y-75559515D01*
X134295451Y-75544705D01*
X134374105Y-75536576D01*
X134450706Y-75533604D01*
X134468476Y-75533503D01*
X134621982Y-75533503D01*
X134621982Y-75744528D01*
G37*
G36*
X135857729Y-76469197D02*
G01*
X135851562Y-76545768D01*
X135831125Y-76621062D01*
X135820360Y-76646151D01*
X135780339Y-76710335D01*
X135725031Y-76765683D01*
X135706420Y-76779874D01*
X135643377Y-76817483D01*
X135575721Y-76845623D01*
X135513347Y-76864138D01*
X135436682Y-76879594D01*
X135360709Y-76888610D01*
X135278129Y-76892989D01*
X135239306Y-76893447D01*
X135165667Y-76891615D01*
X135091478Y-76887034D01*
X135089097Y-76886852D01*
X135014725Y-76879891D01*
X134949878Y-76870000D01*
X134949878Y-76658974D01*
X135023327Y-76668839D01*
X135095691Y-76675826D01*
X135173046Y-76680560D01*
X135247859Y-76682363D01*
X135264219Y-76682421D01*
X135339095Y-76679362D01*
X135411497Y-76668499D01*
X135483295Y-76644862D01*
X135513347Y-76628199D01*
X135566225Y-76574818D01*
X135572698Y-76562986D01*
X135591283Y-76490053D01*
X135591748Y-76475059D01*
X135575500Y-76402959D01*
X135571965Y-76396290D01*
X135521996Y-76342515D01*
X135512247Y-76336207D01*
X135443108Y-76306262D01*
X135409665Y-76297739D01*
X135336977Y-76286876D01*
X135262021Y-76283817D01*
X135112544Y-76283817D01*
X135112544Y-76096238D01*
X135249564Y-76096238D01*
X135323203Y-76092208D01*
X135382921Y-76080118D01*
X135450446Y-76049206D01*
X135467551Y-76036154D01*
X135510527Y-75975940D01*
X135512247Y-75971308D01*
X135525750Y-75898021D01*
X135525803Y-75892906D01*
X135512339Y-75818809D01*
X135471947Y-75765045D01*
X135403804Y-75732072D01*
X135326856Y-75721468D01*
X135306351Y-75721081D01*
X135231271Y-75723899D01*
X135157157Y-75732351D01*
X135147349Y-75733904D01*
X135072983Y-75747777D01*
X135001396Y-75764066D01*
X134985782Y-75767976D01*
X134985782Y-75556950D01*
X135058488Y-75539015D01*
X135074442Y-75535701D01*
X135148173Y-75522918D01*
X135158706Y-75521413D01*
X135233639Y-75513318D01*
X135244435Y-75512620D01*
X135319735Y-75510118D01*
X135334194Y-75510055D01*
X135407518Y-75512913D01*
X135485801Y-75523657D01*
X135529467Y-75534235D01*
X135602244Y-75561069D01*
X135666919Y-75599629D01*
X135670517Y-75602379D01*
X135723280Y-75654674D01*
X135756612Y-75710090D01*
X135779196Y-75781568D01*
X135785555Y-75851507D01*
X135778932Y-75931056D01*
X135756598Y-76005099D01*
X135729501Y-76051908D01*
X135676521Y-76107959D01*
X135614413Y-76149286D01*
X135572331Y-76168778D01*
X135644945Y-76186126D01*
X135689568Y-76203949D01*
X135752184Y-76242478D01*
X135779693Y-76267697D01*
X135823268Y-76326635D01*
X135837579Y-76357090D01*
X135855348Y-76428181D01*
X135857729Y-76469197D01*
G37*
G36*
X136092935Y-76870000D02*
G01*
X136092935Y-76682055D01*
X136411305Y-76369546D01*
X136463899Y-76316301D01*
X136517754Y-76258736D01*
X136554920Y-76216039D01*
X136602914Y-76155040D01*
X136638451Y-76101001D01*
X136670174Y-76031961D01*
X136676919Y-76007212D01*
X136686212Y-75932530D01*
X136686445Y-75918185D01*
X136673989Y-75851140D01*
X136637718Y-75795819D01*
X136578001Y-75758450D01*
X136504501Y-75744651D01*
X136495935Y-75744528D01*
X136419274Y-75752497D01*
X136348291Y-75776402D01*
X136282254Y-75813680D01*
X136223505Y-75858443D01*
X136219697Y-75861765D01*
X136086707Y-75689940D01*
X136143579Y-75642062D01*
X136204745Y-75600553D01*
X136270204Y-75565412D01*
X136283811Y-75559148D01*
X136354257Y-75533259D01*
X136428210Y-75516959D01*
X136505668Y-75510247D01*
X136521581Y-75510055D01*
X136598868Y-75514227D01*
X136675204Y-75528052D01*
X136700733Y-75535334D01*
X136770881Y-75564003D01*
X136834525Y-75606295D01*
X136838120Y-75609340D01*
X136888861Y-75664569D01*
X136926780Y-75732072D01*
X136949395Y-75806100D01*
X136958010Y-75884198D01*
X136958287Y-75902065D01*
X136952883Y-75979276D01*
X136936672Y-76051175D01*
X136908122Y-76123426D01*
X136873657Y-76185631D01*
X136830922Y-76246849D01*
X136783338Y-76304130D01*
X136772174Y-76316423D01*
X136720514Y-76370855D01*
X136667784Y-76423139D01*
X136634788Y-76454542D01*
X136439149Y-76635526D01*
X137007014Y-76635526D01*
X137007014Y-76870000D01*
X136092935Y-76870000D01*
G37*
D11*
G36*
X133832579Y-91199267D02*
G01*
X133884672Y-91203079D01*
X133935059Y-91215814D01*
X133959586Y-91226378D01*
X134003216Y-91254261D01*
X134039648Y-91290465D01*
X134048734Y-91302337D01*
X134074170Y-91345090D01*
X134093720Y-91393970D01*
X134100758Y-91418597D01*
X134111177Y-91470724D01*
X134116503Y-91521584D01*
X134117855Y-91565387D01*
X134116825Y-91617823D01*
X134113733Y-91668885D01*
X134110528Y-91702163D01*
X134103842Y-91751416D01*
X134094408Y-91800257D01*
X134086592Y-91832588D01*
X133914645Y-91832588D01*
X133928613Y-91783816D01*
X133932963Y-91766887D01*
X133944116Y-91717256D01*
X133947862Y-91697766D01*
X133955603Y-91648037D01*
X133957876Y-91628646D01*
X133961311Y-91578225D01*
X133961540Y-91561967D01*
X133959144Y-91512594D01*
X133953968Y-91480390D01*
X133937956Y-91433842D01*
X133933207Y-91425436D01*
X133901456Y-91394661D01*
X133860667Y-91384891D01*
X133812915Y-91398454D01*
X133805713Y-91403942D01*
X133773143Y-91442565D01*
X133766634Y-91453768D01*
X133745667Y-91497946D01*
X133735859Y-91524110D01*
X133718928Y-91571409D01*
X133706550Y-91604466D01*
X133687651Y-91649966D01*
X133671135Y-91684822D01*
X133644284Y-91728590D01*
X133622042Y-91755163D01*
X133583073Y-91787575D01*
X133551944Y-91804989D01*
X133504110Y-91819663D01*
X133454003Y-91823796D01*
X133402895Y-91818972D01*
X133354596Y-91804501D01*
X133310449Y-91779771D01*
X133272286Y-91744173D01*
X133244270Y-91703614D01*
X133223194Y-91657999D01*
X133216355Y-91638415D01*
X133204535Y-91590772D01*
X133198047Y-91541999D01*
X133195614Y-91488027D01*
X133195594Y-91482344D01*
X133196798Y-91431843D01*
X133197060Y-91426413D01*
X133199945Y-91375870D01*
X133200479Y-91368771D01*
X133204823Y-91318782D01*
X133205364Y-91313817D01*
X133211226Y-91265212D01*
X133367541Y-91265212D01*
X133355085Y-91313328D01*
X133346106Y-91362100D01*
X133345315Y-91367306D01*
X133339304Y-91416219D01*
X133338720Y-91423237D01*
X133336299Y-91472141D01*
X133336278Y-91476971D01*
X133339236Y-91527289D01*
X133343849Y-91552442D01*
X133360973Y-91598310D01*
X133364122Y-91603489D01*
X133396117Y-91632309D01*
X133438371Y-91641102D01*
X133485228Y-91623452D01*
X133486487Y-91622295D01*
X133516453Y-91583276D01*
X133522635Y-91571981D01*
X133542846Y-91527477D01*
X133552677Y-91501395D01*
X133569984Y-91453720D01*
X133582719Y-91420307D01*
X133602048Y-91374093D01*
X133619111Y-91339218D01*
X133644974Y-91297332D01*
X133668937Y-91268387D01*
X133707530Y-91235654D01*
X133738302Y-91218318D01*
X133787726Y-91202913D01*
X133832579Y-91199267D01*
G37*
G36*
X134070960Y-90441381D02*
G01*
X134088194Y-90489356D01*
X134102246Y-90539578D01*
X134106131Y-90557152D01*
X134114146Y-90606981D01*
X134117672Y-90658586D01*
X134117855Y-90673656D01*
X134115614Y-90726303D01*
X134108891Y-90775434D01*
X134096163Y-90825900D01*
X134089523Y-90844870D01*
X134066615Y-90893343D01*
X134037185Y-90936333D01*
X134004771Y-90970655D01*
X133962778Y-91002864D01*
X133919044Y-91027136D01*
X133870014Y-91046637D01*
X133864819Y-91048325D01*
X133815708Y-91061076D01*
X133762346Y-91069654D01*
X133711345Y-91073776D01*
X133670891Y-91074703D01*
X133615799Y-91072902D01*
X133563851Y-91067498D01*
X133515048Y-91058491D01*
X133469390Y-91045882D01*
X133421839Y-91027719D01*
X133374126Y-91002961D01*
X133331804Y-90973385D01*
X133320158Y-90963572D01*
X133284986Y-90927771D01*
X133255491Y-90887533D01*
X133231672Y-90842858D01*
X133227590Y-90833391D01*
X133210717Y-90783622D01*
X133200875Y-90735689D01*
X133196094Y-90684781D01*
X133195594Y-90661200D01*
X133196637Y-90611638D01*
X133197060Y-90603070D01*
X133201496Y-90553096D01*
X133201944Y-90549825D01*
X133210960Y-90500394D01*
X133211714Y-90497069D01*
X133224590Y-90448556D01*
X133226857Y-90441381D01*
X133398804Y-90441381D01*
X133380584Y-90487923D01*
X133366372Y-90536062D01*
X133362656Y-90552756D01*
X133354596Y-90603131D01*
X133351909Y-90648743D01*
X133355658Y-90697673D01*
X133369300Y-90746517D01*
X133374624Y-90758164D01*
X133401674Y-90799380D01*
X133437883Y-90832658D01*
X133482518Y-90857937D01*
X133531351Y-90874760D01*
X133534847Y-90875645D01*
X133586152Y-90884995D01*
X133637643Y-90888989D01*
X133658434Y-90889323D01*
X133709828Y-90887365D01*
X133760777Y-90880825D01*
X133786173Y-90875401D01*
X133835081Y-90858739D01*
X133878969Y-90833513D01*
X133881428Y-90831681D01*
X133917710Y-90795662D01*
X133941023Y-90756210D01*
X133955749Y-90709177D01*
X133961359Y-90658500D01*
X133961540Y-90646789D01*
X133957632Y-90597697D01*
X133948543Y-90549284D01*
X133947374Y-90544207D01*
X133934058Y-90495429D01*
X133932475Y-90490474D01*
X133915774Y-90444235D01*
X133914645Y-90441381D01*
X134070960Y-90441381D01*
G37*
G36*
X134102224Y-90226936D02*
G01*
X133211226Y-90226936D01*
X133211226Y-90055233D01*
X133961540Y-90055233D01*
X133961540Y-89675924D01*
X134102224Y-89675924D01*
X134102224Y-90226936D01*
G37*
G36*
X136674448Y-91401988D02*
G01*
X136674448Y-91625959D01*
X135783450Y-91900000D01*
X135783450Y-91708269D01*
X136320051Y-91556594D01*
X136495906Y-91507745D01*
X136309793Y-91456943D01*
X135783450Y-91306489D01*
X135783450Y-91126482D01*
X136674448Y-91401988D01*
G37*
G36*
X136268302Y-90395616D02*
G01*
X136322368Y-90401305D01*
X136373420Y-90411089D01*
X136405780Y-90419888D01*
X136456189Y-90438755D01*
X136501779Y-90463298D01*
X136542552Y-90493518D01*
X136550128Y-90500244D01*
X136584727Y-90537290D01*
X136614032Y-90580348D01*
X136635878Y-90624238D01*
X136642207Y-90639951D01*
X136657792Y-90690545D01*
X136667364Y-90739963D01*
X136672905Y-90793562D01*
X136674448Y-90843893D01*
X136674448Y-91072016D01*
X135783450Y-91072016D01*
X135783450Y-90817271D01*
X135924133Y-90817271D01*
X135924133Y-90903000D01*
X136533764Y-90903000D01*
X136533764Y-90828750D01*
X136530246Y-90777319D01*
X136517610Y-90725524D01*
X136495785Y-90681179D01*
X136460247Y-90640195D01*
X136418206Y-90611878D01*
X136372756Y-90593737D01*
X136319217Y-90581791D01*
X136266890Y-90576482D01*
X136228704Y-90575471D01*
X136176715Y-90577119D01*
X136125432Y-90582626D01*
X136099988Y-90587194D01*
X136050730Y-90601727D01*
X136006705Y-90625037D01*
X136004245Y-90626762D01*
X135967841Y-90661532D01*
X135944650Y-90701256D01*
X135929924Y-90749981D01*
X135924454Y-90800285D01*
X135924133Y-90817271D01*
X135783450Y-90817271D01*
X135783450Y-90806280D01*
X135785052Y-90756363D01*
X135790687Y-90704074D01*
X135800380Y-90655882D01*
X135809095Y-90626029D01*
X135827690Y-90580166D01*
X135854426Y-90535558D01*
X135887741Y-90497069D01*
X135927724Y-90464697D01*
X135974460Y-90438445D01*
X136022808Y-90419888D01*
X136071305Y-90407373D01*
X136124748Y-90398954D01*
X136176406Y-90394908D01*
X136217713Y-90393998D01*
X136268302Y-90395616D01*
G37*
G36*
X136268302Y-89626740D02*
G01*
X136322368Y-89632428D01*
X136373420Y-89642213D01*
X136405780Y-89651011D01*
X136456189Y-89669878D01*
X136501779Y-89694422D01*
X136542552Y-89724642D01*
X136550128Y-89731367D01*
X136584727Y-89768414D01*
X136614032Y-89811471D01*
X136635878Y-89855362D01*
X136642207Y-89871074D01*
X136657792Y-89921669D01*
X136667364Y-89971086D01*
X136672905Y-90024686D01*
X136674448Y-90075017D01*
X136674448Y-90303140D01*
X135783450Y-90303140D01*
X135783450Y-90048394D01*
X135924133Y-90048394D01*
X135924133Y-90134124D01*
X136533764Y-90134124D01*
X136533764Y-90059874D01*
X136530246Y-90008443D01*
X136517610Y-89956648D01*
X136495785Y-89912303D01*
X136460247Y-89871318D01*
X136418206Y-89843002D01*
X136372756Y-89824861D01*
X136319217Y-89812915D01*
X136266890Y-89807605D01*
X136228704Y-89806594D01*
X136176715Y-89808243D01*
X136125432Y-89813750D01*
X136099988Y-89818318D01*
X136050730Y-89832851D01*
X136006705Y-89856161D01*
X136004245Y-89857885D01*
X135967841Y-89892655D01*
X135944650Y-89932379D01*
X135929924Y-89981105D01*
X135924454Y-90031408D01*
X135924133Y-90048394D01*
X135783450Y-90048394D01*
X135783450Y-90037404D01*
X135785052Y-89987486D01*
X135790687Y-89935198D01*
X135800380Y-89887005D01*
X135809095Y-89857152D01*
X135827690Y-89811290D01*
X135854426Y-89766682D01*
X135887741Y-89728192D01*
X135927724Y-89695821D01*
X135974460Y-89669568D01*
X136022808Y-89651011D01*
X136071305Y-89638496D01*
X136124748Y-89630077D01*
X136176406Y-89626032D01*
X136217713Y-89625122D01*
X136268302Y-89626740D01*
G37*
G36*
X131260355Y-91199267D02*
G01*
X131312448Y-91203079D01*
X131362835Y-91215814D01*
X131387362Y-91226378D01*
X131430992Y-91254261D01*
X131467424Y-91290465D01*
X131476510Y-91302337D01*
X131501946Y-91345090D01*
X131521496Y-91393970D01*
X131528534Y-91418597D01*
X131538953Y-91470724D01*
X131544279Y-91521584D01*
X131545631Y-91565387D01*
X131544601Y-91617823D01*
X131541509Y-91668885D01*
X131538304Y-91702163D01*
X131531618Y-91751416D01*
X131522184Y-91800257D01*
X131514368Y-91832588D01*
X131342421Y-91832588D01*
X131356389Y-91783816D01*
X131360739Y-91766887D01*
X131371892Y-91717256D01*
X131375638Y-91697766D01*
X131383379Y-91648037D01*
X131385652Y-91628646D01*
X131389087Y-91578225D01*
X131389316Y-91561967D01*
X131386920Y-91512594D01*
X131381744Y-91480390D01*
X131365732Y-91433842D01*
X131360983Y-91425436D01*
X131329232Y-91394661D01*
X131288443Y-91384891D01*
X131240691Y-91398454D01*
X131233489Y-91403942D01*
X131200919Y-91442565D01*
X131194410Y-91453768D01*
X131173443Y-91497946D01*
X131163635Y-91524110D01*
X131146704Y-91571409D01*
X131134326Y-91604466D01*
X131115427Y-91649966D01*
X131098911Y-91684822D01*
X131072060Y-91728590D01*
X131049818Y-91755163D01*
X131010849Y-91787575D01*
X130979720Y-91804989D01*
X130931886Y-91819663D01*
X130881779Y-91823796D01*
X130830671Y-91818972D01*
X130782372Y-91804501D01*
X130738225Y-91779771D01*
X130700062Y-91744173D01*
X130672046Y-91703614D01*
X130650970Y-91657999D01*
X130644131Y-91638415D01*
X130632311Y-91590772D01*
X130625823Y-91541999D01*
X130623390Y-91488027D01*
X130623370Y-91482344D01*
X130624574Y-91431843D01*
X130624836Y-91426413D01*
X130627721Y-91375870D01*
X130628255Y-91368771D01*
X130632599Y-91318782D01*
X130633140Y-91313817D01*
X130639002Y-91265212D01*
X130795317Y-91265212D01*
X130782861Y-91313328D01*
X130773882Y-91362100D01*
X130773091Y-91367306D01*
X130767080Y-91416219D01*
X130766496Y-91423237D01*
X130764075Y-91472141D01*
X130764054Y-91476971D01*
X130767012Y-91527289D01*
X130771625Y-91552442D01*
X130788749Y-91598310D01*
X130791898Y-91603489D01*
X130823893Y-91632309D01*
X130866147Y-91641102D01*
X130913004Y-91623452D01*
X130914263Y-91622295D01*
X130944229Y-91583276D01*
X130950411Y-91571981D01*
X130970622Y-91527477D01*
X130980453Y-91501395D01*
X130997760Y-91453720D01*
X131010495Y-91420307D01*
X131029824Y-91374093D01*
X131046887Y-91339218D01*
X131072750Y-91297332D01*
X131096713Y-91268387D01*
X131135306Y-91235654D01*
X131166078Y-91218318D01*
X131215502Y-91202913D01*
X131260355Y-91199267D01*
G37*
G36*
X131123854Y-90395616D02*
G01*
X131177920Y-90401305D01*
X131228972Y-90411089D01*
X131261332Y-90419888D01*
X131311741Y-90438755D01*
X131357331Y-90463298D01*
X131398104Y-90493518D01*
X131405680Y-90500244D01*
X131440279Y-90537290D01*
X131469584Y-90580348D01*
X131491430Y-90624238D01*
X131497759Y-90639951D01*
X131513344Y-90690545D01*
X131522916Y-90739963D01*
X131528457Y-90793562D01*
X131530000Y-90843893D01*
X131530000Y-91072016D01*
X130639002Y-91072016D01*
X130639002Y-90817271D01*
X130779685Y-90817271D01*
X130779685Y-90903000D01*
X131389316Y-90903000D01*
X131389316Y-90828750D01*
X131385798Y-90777319D01*
X131373162Y-90725524D01*
X131351337Y-90681179D01*
X131315799Y-90640195D01*
X131273758Y-90611878D01*
X131228308Y-90593737D01*
X131174769Y-90581791D01*
X131122442Y-90576482D01*
X131084256Y-90575471D01*
X131032267Y-90577119D01*
X130980984Y-90582626D01*
X130955540Y-90587194D01*
X130906282Y-90601727D01*
X130862257Y-90625037D01*
X130859797Y-90626762D01*
X130823393Y-90661532D01*
X130800202Y-90701256D01*
X130785476Y-90749981D01*
X130780006Y-90800285D01*
X130779685Y-90817271D01*
X130639002Y-90817271D01*
X130639002Y-90806280D01*
X130640604Y-90756363D01*
X130646239Y-90704074D01*
X130655932Y-90655882D01*
X130664647Y-90626029D01*
X130683242Y-90580166D01*
X130709978Y-90535558D01*
X130743293Y-90497069D01*
X130783276Y-90464697D01*
X130830012Y-90438445D01*
X130878360Y-90419888D01*
X130926857Y-90407373D01*
X130980300Y-90398954D01*
X131031958Y-90394908D01*
X131073265Y-90393998D01*
X131123854Y-90395616D01*
G37*
G36*
X131530000Y-89778262D02*
G01*
X131358053Y-89827843D01*
X131358053Y-90140963D01*
X131530000Y-90191765D01*
X131530000Y-90359560D01*
X130639002Y-90093579D01*
X130639002Y-89982449D01*
X130791898Y-89982449D01*
X131217369Y-90100418D01*
X131217369Y-89865701D01*
X130791898Y-89982449D01*
X130639002Y-89982449D01*
X130639002Y-89857397D01*
X131530000Y-89591416D01*
X131530000Y-89778262D01*
G37*
D12*
X130338095Y-79529819D02*
X130338095Y-80339342D01*
X130338095Y-80339342D02*
X130385714Y-80434580D01*
X130385714Y-80434580D02*
X130433333Y-80482200D01*
X130433333Y-80482200D02*
X130528571Y-80529819D01*
X130528571Y-80529819D02*
X130719047Y-80529819D01*
X130719047Y-80529819D02*
X130814285Y-80482200D01*
X130814285Y-80482200D02*
X130861904Y-80434580D01*
X130861904Y-80434580D02*
X130909523Y-80339342D01*
X130909523Y-80339342D02*
X130909523Y-79529819D01*
X131909523Y-80529819D02*
X131338095Y-80529819D01*
X131623809Y-80529819D02*
X131623809Y-79529819D01*
X131623809Y-79529819D02*
X131528571Y-79672676D01*
X131528571Y-79672676D02*
X131433333Y-79767914D01*
X131433333Y-79767914D02*
X131338095Y-79815533D01*
X136754819Y-83266666D02*
X136278628Y-83599999D01*
X136754819Y-83838094D02*
X135754819Y-83838094D01*
X135754819Y-83838094D02*
X135754819Y-83457142D01*
X135754819Y-83457142D02*
X135802438Y-83361904D01*
X135802438Y-83361904D02*
X135850057Y-83314285D01*
X135850057Y-83314285D02*
X135945295Y-83266666D01*
X135945295Y-83266666D02*
X136088152Y-83266666D01*
X136088152Y-83266666D02*
X136183390Y-83314285D01*
X136183390Y-83314285D02*
X136231009Y-83361904D01*
X136231009Y-83361904D02*
X136278628Y-83457142D01*
X136278628Y-83457142D02*
X136278628Y-83838094D01*
X135850057Y-82885713D02*
X135802438Y-82838094D01*
X135802438Y-82838094D02*
X135754819Y-82742856D01*
X135754819Y-82742856D02*
X135754819Y-82504761D01*
X135754819Y-82504761D02*
X135802438Y-82409523D01*
X135802438Y-82409523D02*
X135850057Y-82361904D01*
X135850057Y-82361904D02*
X135945295Y-82314285D01*
X135945295Y-82314285D02*
X136040533Y-82314285D01*
X136040533Y-82314285D02*
X136183390Y-82361904D01*
X136183390Y-82361904D02*
X136754819Y-82933332D01*
X136754819Y-82933332D02*
X136754819Y-82314285D01*
X130204819Y-83866666D02*
X129728628Y-84199999D01*
X130204819Y-84438094D02*
X129204819Y-84438094D01*
X129204819Y-84438094D02*
X129204819Y-84057142D01*
X129204819Y-84057142D02*
X129252438Y-83961904D01*
X129252438Y-83961904D02*
X129300057Y-83914285D01*
X129300057Y-83914285D02*
X129395295Y-83866666D01*
X129395295Y-83866666D02*
X129538152Y-83866666D01*
X129538152Y-83866666D02*
X129633390Y-83914285D01*
X129633390Y-83914285D02*
X129681009Y-83961904D01*
X129681009Y-83961904D02*
X129728628Y-84057142D01*
X129728628Y-84057142D02*
X129728628Y-84438094D01*
X130204819Y-82914285D02*
X130204819Y-83485713D01*
X130204819Y-83199999D02*
X129204819Y-83199999D01*
X129204819Y-83199999D02*
X129347676Y-83295237D01*
X129347676Y-83295237D02*
X129442914Y-83390475D01*
X129442914Y-83390475D02*
X129490533Y-83485713D01*
X138738095Y-74254819D02*
X138738095Y-73254819D01*
X138738095Y-73731009D02*
X139309523Y-73731009D01*
X139309523Y-74254819D02*
X139309523Y-73254819D01*
X139738095Y-73350057D02*
X139785714Y-73302438D01*
X139785714Y-73302438D02*
X139880952Y-73254819D01*
X139880952Y-73254819D02*
X140119047Y-73254819D01*
X140119047Y-73254819D02*
X140214285Y-73302438D01*
X140214285Y-73302438D02*
X140261904Y-73350057D01*
X140261904Y-73350057D02*
X140309523Y-73445295D01*
X140309523Y-73445295D02*
X140309523Y-73540533D01*
X140309523Y-73540533D02*
X140261904Y-73683390D01*
X140261904Y-73683390D02*
X139690476Y-74254819D01*
X139690476Y-74254819D02*
X140309523Y-74254819D01*
X124738095Y-74254819D02*
X124738095Y-73254819D01*
X124738095Y-73731009D02*
X125309523Y-73731009D01*
X125309523Y-74254819D02*
X125309523Y-73254819D01*
X126309523Y-74254819D02*
X125738095Y-74254819D01*
X126023809Y-74254819D02*
X126023809Y-73254819D01*
X126023809Y-73254819D02*
X125928571Y-73397676D01*
X125928571Y-73397676D02*
X125833333Y-73492914D01*
X125833333Y-73492914D02*
X125738095Y-73540533D01*
X132583333Y-87909580D02*
X132535714Y-87957200D01*
X132535714Y-87957200D02*
X132392857Y-88004819D01*
X132392857Y-88004819D02*
X132297619Y-88004819D01*
X132297619Y-88004819D02*
X132154762Y-87957200D01*
X132154762Y-87957200D02*
X132059524Y-87861961D01*
X132059524Y-87861961D02*
X132011905Y-87766723D01*
X132011905Y-87766723D02*
X131964286Y-87576247D01*
X131964286Y-87576247D02*
X131964286Y-87433390D01*
X131964286Y-87433390D02*
X132011905Y-87242914D01*
X132011905Y-87242914D02*
X132059524Y-87147676D01*
X132059524Y-87147676D02*
X132154762Y-87052438D01*
X132154762Y-87052438D02*
X132297619Y-87004819D01*
X132297619Y-87004819D02*
X132392857Y-87004819D01*
X132392857Y-87004819D02*
X132535714Y-87052438D01*
X132535714Y-87052438D02*
X132583333Y-87100057D01*
X133535714Y-88004819D02*
X132964286Y-88004819D01*
X133250000Y-88004819D02*
X133250000Y-87004819D01*
X133250000Y-87004819D02*
X133154762Y-87147676D01*
X133154762Y-87147676D02*
X133059524Y-87242914D01*
X133059524Y-87242914D02*
X132964286Y-87290533D01*
D13*
%TO.C,U1*%
X131600000Y-85105000D02*
G75*
G02*
X131400000Y-85105000I-100000J0D01*
G01*
X131400000Y-85105000D02*
G75*
G02*
X131600000Y-85105000I100000J0D01*
G01*
D14*
X134095000Y-84275000D02*
X134095000Y-81275000D01*
X130905000Y-81275000D02*
X130905000Y-84275000D01*
D15*
%TO.C,R2*%
X135777500Y-85929724D02*
X135777500Y-85420276D01*
X136822500Y-85929724D02*
X136822500Y-85420276D01*
%TO.C,R1*%
X129227500Y-86679724D02*
X129227500Y-86170276D01*
X130272500Y-86679724D02*
X130272500Y-86170276D01*
%TO.C,C1*%
X132603733Y-85640000D02*
X132896267Y-85640000D01*
X132603733Y-86660000D02*
X132896267Y-86660000D01*
%TO.C,J1*%
X137650000Y-94630000D02*
X137650000Y-91970000D01*
X129970000Y-94630000D02*
X137650000Y-94630000D01*
X129970000Y-94630000D02*
X129970000Y-91970000D01*
X129970000Y-91970000D02*
X137650000Y-91970000D01*
X128700000Y-94630000D02*
X127370000Y-94630000D01*
X127370000Y-94630000D02*
X127370000Y-93300000D01*
D16*
%TO.C,kibuzzard-679A3272*%
G36*
X129369596Y-90560635D02*
G01*
X129369596Y-91303769D01*
X129369596Y-91630748D01*
X129369596Y-91900000D01*
X128319300Y-91900000D01*
X128319300Y-91630748D01*
X128319300Y-91284383D01*
X128427001Y-91284383D01*
X128433624Y-91354496D01*
X128453495Y-91420086D01*
X128486613Y-91479214D01*
X128532978Y-91529941D01*
X128592267Y-91571621D01*
X128664157Y-91603608D01*
X128748325Y-91623963D01*
X128844448Y-91630748D01*
X128941540Y-91624933D01*
X129026031Y-91607485D01*
X129097760Y-91579375D01*
X129156564Y-91541572D01*
X129202445Y-91494561D01*
X129235401Y-91438826D01*
X129255272Y-91375013D01*
X129261895Y-91303769D01*
X129258664Y-91224771D01*
X129248971Y-91158374D01*
X129225708Y-91069844D01*
X128826354Y-91069844D01*
X128826354Y-91228810D01*
X129118438Y-91228810D01*
X129122316Y-91259827D01*
X129123608Y-91290845D01*
X129106645Y-91368067D01*
X129055757Y-91423963D01*
X129002122Y-91449093D01*
X128931685Y-91464171D01*
X128844448Y-91469197D01*
X128785159Y-91466451D01*
X128731362Y-91458212D01*
X128643479Y-91422025D01*
X128585967Y-91358050D01*
X128565288Y-91262412D01*
X128579505Y-91177113D01*
X128611815Y-91107323D01*
X128485159Y-91065966D01*
X128469650Y-91092461D01*
X128450264Y-91137049D01*
X128434109Y-91201023D01*
X128427001Y-91284383D01*
X128319300Y-91284383D01*
X128319300Y-90432687D01*
X128445094Y-90432687D01*
X128445094Y-90576144D01*
X128937501Y-90576144D01*
X128887097Y-90598923D01*
X128828939Y-90625902D01*
X128765934Y-90656273D01*
X128700991Y-90689230D01*
X128634916Y-90723963D01*
X128568519Y-90759666D01*
X128504383Y-90795853D01*
X128445094Y-90832041D01*
X128445094Y-90959989D01*
X129245094Y-90959989D01*
X129245094Y-90816532D01*
X128713915Y-90816532D01*
X128802588Y-90768497D01*
X128891118Y-90722617D01*
X128979505Y-90678891D01*
X129067891Y-90637318D01*
X129156421Y-90597900D01*
X129245094Y-90560635D01*
X129245094Y-90432687D01*
X128445094Y-90432687D01*
X128319300Y-90432687D01*
X128319300Y-90112170D01*
X128436047Y-90112170D01*
X128439925Y-90201346D01*
X128455433Y-90303446D01*
X129236047Y-90303446D01*
X129250910Y-90216209D01*
X129255433Y-90132849D01*
X129249779Y-90054819D01*
X129232816Y-89983575D01*
X129203576Y-89920409D01*
X129161088Y-89866613D01*
X129104706Y-89822832D01*
X129033786Y-89789714D01*
X128947356Y-89768874D01*
X128844448Y-89761928D01*
X128743802Y-89768228D01*
X128658988Y-89787130D01*
X128588874Y-89817340D01*
X128532332Y-89857566D01*
X128489198Y-89907808D01*
X128459311Y-89968067D01*
X128441863Y-90036726D01*
X128436047Y-90112170D01*
X128319300Y-90112170D01*
X128319300Y-89761928D01*
X128319300Y-89492676D01*
X129369596Y-89492676D01*
X129369596Y-89761928D01*
X129369596Y-90132849D01*
X129369596Y-90560635D01*
G37*
G36*
X128901475Y-89925902D02*
G01*
X128953656Y-89933172D01*
X129039601Y-89965482D01*
X129096467Y-90024933D01*
X129117146Y-90116047D01*
X129117146Y-90130264D01*
X129115853Y-90144480D01*
X128578212Y-90144480D01*
X128574981Y-90121217D01*
X128574335Y-90097954D01*
X128596952Y-90011362D01*
X128657049Y-89958374D01*
X128743640Y-89931233D01*
X128844448Y-89923479D01*
X128901475Y-89925902D01*
G37*
%TD*%
M02*
