%TF.GenerationSoftware,KiCad,Pcbnew,8.0.7*%
%TF.CreationDate,2025-02-03T20:19:39+05:30*%
%TF.ProjectId,MLX90632_v1.0,4d4c5839-3036-4333-925f-76312e302e6b,rev?*%
%TF.SameCoordinates,Original*%
%TF.FileFunction,Copper,L1,Top*%
%TF.FilePolarity,Positive*%
%FSLAX46Y46*%
G04 Gerber Fmt 4.6, Leading zero omitted, Abs format (unit mm)*
G04 Created by KiCad (PCBNEW 8.0.7) date 2025-02-03 20:19:39*
%MOMM*%
%LPD*%
G01*
G04 APERTURE LIST*
G04 Aperture macros list*
%AMRoundRect*
0 Rectangle with rounded corners*
0 $1 Rounding radius*
0 $2 $3 $4 $5 $6 $7 $8 $9 X,Y pos of 4 corners*
0 Add a 4 corners polygon primitive as box body*
4,1,4,$2,$3,$4,$5,$6,$7,$8,$9,$2,$3,0*
0 Add four circle primitives for the rounded corners*
1,1,$1+$1,$2,$3*
1,1,$1+$1,$4,$5*
1,1,$1+$1,$6,$7*
1,1,$1+$1,$8,$9*
0 Add four rect primitives between the rounded corners*
20,1,$1+$1,$2,$3,$4,$5,0*
20,1,$1+$1,$4,$5,$6,$7,0*
20,1,$1+$1,$6,$7,$8,$9,0*
20,1,$1+$1,$8,$9,$2,$3,0*%
%AMFreePoly0*
4,1,92,0.032822,0.129932,0.038756,0.128943,0.045707,0.127950,0.045822,0.127932,0.057822,0.125932,0.058374,0.125808,0.065374,0.123808,0.065581,0.123743,0.071581,0.121743,0.072236,0.121472,0.084236,0.115472,0.084572,0.115287,0.089402,0.112389,0.095236,0.109472,0.096123,0.108904,0.100948,0.105044,0.106774,0.101160,0.107123,0.100904,0.112123,0.096904,0.112904,0.096123,
0.116556,0.091556,0.121123,0.087904,0.121904,0.087123,0.125904,0.082123,0.126160,0.081774,0.130044,0.075948,0.133904,0.071123,0.134472,0.070236,0.137389,0.064402,0.140287,0.059572,0.140472,0.059236,0.146472,0.047236,0.146743,0.046581,0.148743,0.040581,0.148808,0.040374,0.150808,0.033374,0.150932,0.032822,0.152932,0.020822,0.152950,0.020707,0.153943,0.013756,
0.154932,0.007822,0.155000,0.007000,0.155000,-0.007000,0.154932,-0.007822,0.153943,-0.013756,0.152950,-0.020707,0.152932,-0.020822,0.150932,-0.032822,0.150808,-0.033374,0.148808,-0.040374,0.148743,-0.040581,0.146743,-0.046581,0.146472,-0.047236,0.137472,-0.065236,0.137287,-0.065572,0.134287,-0.070572,0.133904,-0.071123,0.130044,-0.075948,0.126160,-0.081774,0.125904,-0.082123,
0.121904,-0.087123,0.121123,-0.087904,0.116556,-0.091556,0.112904,-0.096123,0.112123,-0.096904,0.107123,-0.100904,0.106774,-0.101160,0.100948,-0.105044,0.096123,-0.108904,0.095236,-0.109472,0.089402,-0.112389,0.084572,-0.115287,0.084236,-0.115472,0.072236,-0.121472,0.071581,-0.121743,0.065581,-0.123743,0.065374,-0.123808,0.058374,-0.125808,0.057822,-0.125932,0.045822,-0.127932,
0.045707,-0.127950,0.038756,-0.128943,0.032822,-0.129932,0.032000,-0.130000,-0.150000,-0.130000,-0.153536,-0.128536,-0.155000,-0.125000,-0.155000,0.125000,-0.153536,0.128536,-0.150000,0.130000,0.032000,0.130000,0.032822,0.129932,0.032822,0.129932,$1*%
%AMFreePoly1*
4,1,177,0.908620,1.279961,0.916620,1.278961,0.916707,1.278950,0.923700,1.277951,0.931620,1.276961,0.932213,1.276851,0.940213,1.274851,0.940374,1.274808,0.947374,1.272808,0.947756,1.272682,0.955756,1.269682,0.955970,1.269596,0.969970,1.263596,0.970481,1.263341,0.984481,1.255341,0.985201,1.254841,0.990995,1.250012,0.996774,1.246160,0.997536,1.245536,1.003381,1.239691,
1.009201,1.234841,1.009841,1.234201,1.014691,1.228381,1.020536,1.222536,1.021160,1.221774,1.025012,1.215995,1.029841,1.210201,1.030341,1.209481,1.038341,1.195481,1.038596,1.194970,1.044596,1.180970,1.044682,1.180756,1.047682,1.172756,1.047808,1.172374,1.049808,1.165374,1.049851,1.165213,1.051851,1.157213,1.051961,1.156620,1.052950,1.148707,1.053950,1.141707,
1.053961,1.141620,1.054961,1.133620,1.055000,1.133000,1.055000,-1.133000,1.054961,-1.133620,1.053961,-1.141620,1.053950,-1.141707,1.052950,-1.148707,1.051961,-1.156620,1.051851,-1.157213,1.049851,-1.165213,1.049808,-1.165374,1.047808,-1.172374,1.047682,-1.172756,1.044682,-1.180756,1.044596,-1.180970,1.038596,-1.194970,1.038341,-1.195481,1.030341,-1.209481,1.029841,-1.210201,
1.025012,-1.215995,1.021160,-1.221774,1.020536,-1.222536,1.014691,-1.228381,1.009841,-1.234201,1.009201,-1.234841,1.003381,-1.239691,0.997536,-1.245536,0.996774,-1.246160,0.990995,-1.250012,0.985201,-1.254841,0.984481,-1.255341,0.970481,-1.263341,0.969970,-1.263596,0.955970,-1.269596,0.955756,-1.269682,0.947756,-1.272682,0.947374,-1.272808,0.940374,-1.274808,0.940213,-1.274851,
0.932213,-1.276851,0.931620,-1.276961,0.923700,-1.277951,0.916707,-1.278950,0.916620,-1.278961,0.908620,-1.279961,0.908000,-1.280000,-0.908000,-1.280000,-0.908620,-1.279961,-0.916620,-1.278961,-0.916707,-1.278950,-0.923700,-1.277951,-0.931620,-1.276961,-0.932213,-1.276851,-0.940213,-1.274851,-0.940374,-1.274808,-0.947374,-1.272808,-0.947756,-1.272682,-0.955756,-1.269682,-0.955970,-1.269596,
-0.969970,-1.263596,-0.970481,-1.263341,-0.984481,-1.255341,-0.985201,-1.254841,-0.990995,-1.250012,-0.996774,-1.246160,-0.997536,-1.245536,-1.003381,-1.239691,-1.009201,-1.234841,-1.009841,-1.234201,-1.014691,-1.228381,-1.020536,-1.222536,-1.021160,-1.221774,-1.025012,-1.215995,-1.029841,-1.210201,-1.030341,-1.209481,-1.038341,-1.195481,-1.038596,-1.194970,-1.044596,-1.180970,-1.044682,-1.180756,
-1.047682,-1.172756,-1.047808,-1.172374,-1.049808,-1.165374,-1.049851,-1.165213,-1.051851,-1.157213,-1.051961,-1.156620,-1.052950,-1.148707,-1.053950,-1.141707,-1.053961,-1.141620,-1.054961,-1.133620,-1.055000,-1.133000,-1.055000,1.133000,-1.054961,1.133620,-1.053961,1.141620,-1.053950,1.141707,-1.052950,1.148707,-1.051961,1.156620,-1.051851,1.157213,-1.049851,1.165213,-1.049808,1.165374,
-1.047808,1.172374,-1.047682,1.172756,-1.044682,1.180756,-1.044596,1.180970,-1.038596,1.194970,-1.038341,1.195481,-1.030341,1.209481,-1.029841,1.210201,-1.025012,1.215995,-1.021160,1.221774,-1.020536,1.222536,-1.014691,1.228381,-1.009841,1.234201,-1.009201,1.234841,-1.003381,1.239691,-0.997536,1.245536,-0.996774,1.246160,-0.990995,1.250012,-0.985201,1.254841,-0.984481,1.255341,
-0.970481,1.263341,-0.969970,1.263596,-0.955970,1.269596,-0.955756,1.269682,-0.947756,1.272682,-0.947374,1.272808,-0.940374,1.274808,-0.940213,1.274851,-0.932213,1.276851,-0.931620,1.276961,-0.923700,1.277951,-0.916707,1.278950,-0.916620,1.278961,-0.908620,1.279961,-0.908000,1.280000,0.908000,1.280000,0.908620,1.279961,0.908620,1.279961,$1*%
%AMFreePoly2*
4,1,93,0.032822,0.129932,0.038756,0.128943,0.045707,0.127950,0.045822,0.127932,0.057822,0.125932,0.058374,0.125808,0.065374,0.123808,0.065581,0.123743,0.071581,0.121743,0.072236,0.121472,0.084236,0.115472,0.084572,0.115287,0.089402,0.112389,0.095236,0.109472,0.096123,0.108904,0.100948,0.105044,0.106774,0.101160,0.107123,0.100904,0.112123,0.096904,0.112904,0.096123,
0.116556,0.091556,0.121123,0.087904,0.121904,0.087123,0.125904,0.082123,0.126160,0.081774,0.130044,0.075948,0.133904,0.071123,0.134472,0.070236,0.137389,0.064402,0.140287,0.059572,0.140472,0.059236,0.146472,0.047236,0.146743,0.046581,0.148743,0.040581,0.148808,0.040374,0.150808,0.033374,0.150932,0.032822,0.152932,0.020822,0.152950,0.020707,0.153943,0.013756,
0.154932,0.007822,0.155000,0.007000,0.155000,-0.007000,0.154932,-0.007822,0.153943,-0.013756,0.152950,-0.020707,0.152932,-0.020822,0.150932,-0.032822,0.150808,-0.033374,0.148808,-0.040374,0.148743,-0.040581,0.146743,-0.046581,0.146472,-0.047236,0.140472,-0.059236,0.140287,-0.059572,0.137389,-0.064402,0.134472,-0.070236,0.133904,-0.071123,0.130044,-0.075948,0.126160,-0.081774,
0.125904,-0.082123,0.121904,-0.087123,0.121123,-0.087904,0.116556,-0.091556,0.112904,-0.096123,0.112123,-0.096904,0.107123,-0.100904,0.106774,-0.101160,0.100948,-0.105044,0.096123,-0.108904,0.095236,-0.109472,0.089402,-0.112389,0.084572,-0.115287,0.084236,-0.115472,0.072236,-0.121472,0.071581,-0.121743,0.065581,-0.123743,0.065374,-0.123808,0.058374,-0.125808,0.057822,-0.125932,
0.045822,-0.127932,0.045707,-0.127950,0.038756,-0.128943,0.032822,-0.129932,0.032000,-0.130000,-0.150000,-0.130000,-0.153536,-0.128536,-0.155000,-0.125000,-0.155000,0.125000,-0.153536,0.128536,-0.150000,0.130000,0.032000,0.130000,0.032822,0.129932,0.032822,0.129932,$1*%
%AMFreePoly3*
4,1,92,0.032822,0.129932,0.038756,0.128943,0.045707,0.127950,0.045822,0.127932,0.057822,0.125932,0.058374,0.125808,0.065374,0.123808,0.065581,0.123743,0.071581,0.121743,0.072236,0.121472,0.084236,0.115472,0.084572,0.115287,0.089402,0.112389,0.095236,0.109472,0.096123,0.108904,0.100948,0.105044,0.106774,0.101160,0.107123,0.100904,0.112123,0.096904,0.112904,0.096123,
0.116556,0.091556,0.121123,0.087904,0.121904,0.087123,0.125904,0.082123,0.126160,0.081774,0.130044,0.075948,0.133904,0.071123,0.134287,0.070572,0.137287,0.065572,0.137472,0.065236,0.146472,0.047236,0.146743,0.046581,0.148743,0.040581,0.148808,0.040374,0.150808,0.033374,0.150932,0.032822,0.152932,0.020822,0.152950,0.020707,0.153943,0.013756,0.154932,0.007822,
0.155000,0.007000,0.155000,-0.007000,0.154932,-0.007822,0.153943,-0.013756,0.152950,-0.020707,0.152932,-0.020822,0.150932,-0.032822,0.150808,-0.033374,0.148808,-0.040374,0.148743,-0.040581,0.146743,-0.046581,0.146472,-0.047236,0.140472,-0.059236,0.140287,-0.059572,0.137389,-0.064402,0.134472,-0.070236,0.133904,-0.071123,0.130044,-0.075948,0.126160,-0.081774,0.125904,-0.082123,
0.121904,-0.087123,0.121123,-0.087904,0.116556,-0.091556,0.112904,-0.096123,0.112123,-0.096904,0.107123,-0.100904,0.106774,-0.101160,0.100948,-0.105044,0.096123,-0.108904,0.095236,-0.109472,0.089402,-0.112389,0.084572,-0.115287,0.084236,-0.115472,0.072236,-0.121472,0.071581,-0.121743,0.065581,-0.123743,0.065374,-0.123808,0.058374,-0.125808,0.057822,-0.125932,0.045822,-0.127932,
0.045707,-0.127950,0.038756,-0.128943,0.032822,-0.129932,0.032000,-0.130000,-0.150000,-0.130000,-0.153536,-0.128536,-0.155000,-0.125000,-0.155000,0.125000,-0.153536,0.128536,-0.150000,0.130000,0.032000,0.130000,0.032822,0.129932,0.032822,0.129932,$1*%
G04 Aperture macros list end*
%TA.AperFunction,SMDPad,CuDef*%
%ADD10FreePoly0,90.000000*%
%TD*%
%TA.AperFunction,SMDPad,CuDef*%
%ADD11FreePoly1,90.000000*%
%TD*%
%TA.AperFunction,SMDPad,CuDef*%
%ADD12FreePoly2,90.000000*%
%TD*%
%TA.AperFunction,SMDPad,CuDef*%
%ADD13FreePoly3,90.000000*%
%TD*%
%TA.AperFunction,SMDPad,CuDef*%
%ADD14C,0.500000*%
%TD*%
%TA.AperFunction,SMDPad,CuDef*%
%ADD15RoundRect,0.237500X0.237500X-0.250000X0.237500X0.250000X-0.237500X0.250000X-0.237500X-0.250000X0*%
%TD*%
%TA.AperFunction,SMDPad,CuDef*%
%ADD16RoundRect,0.237500X-0.300000X-0.237500X0.300000X-0.237500X0.300000X0.237500X-0.300000X0.237500X0*%
%TD*%
%TA.AperFunction,ComponentPad*%
%ADD17O,1.700000X1.700000*%
%TD*%
%TA.AperFunction,ComponentPad*%
%ADD18R,1.700000X1.700000*%
%TD*%
%TA.AperFunction,ViaPad*%
%ADD19C,1.000000*%
%TD*%
%TA.AperFunction,Conductor*%
%ADD20C,0.200000*%
%TD*%
%TA.AperFunction,Conductor*%
%ADD21C,0.304800*%
%TD*%
G04 APERTURE END LIST*
D10*
%TO.P,U1,5,ADDR*%
%TO.N,/GND*%
X133500000Y-84025000D03*
%TO.P,U1,4,SCL*%
%TO.N,/SCL*%
X133000000Y-84025000D03*
D11*
%TO.P,U1,3,GND*%
%TO.N,/GND*%
X132500000Y-82525000D03*
D12*
X132500000Y-84025000D03*
D13*
%TO.P,U1,2,VDD*%
%TO.N,/VDD*%
X132000000Y-84025000D03*
%TO.P,U1,1,SDA*%
%TO.N,/SDA*%
X131500000Y-84025000D03*
%TD*%
D14*
%TO.P,FID1,*%
%TO.N,*%
X135250000Y-80550000D03*
%TD*%
D15*
%TO.P,R2,1*%
%TO.N,/VDD*%
X136300000Y-86587500D03*
%TO.P,R2,2*%
%TO.N,/SCL*%
X136300000Y-84762500D03*
%TD*%
%TO.P,R1,1*%
%TO.N,/VDD*%
X129750000Y-87337500D03*
%TO.P,R1,2*%
%TO.N,/SDA*%
X129750000Y-85512500D03*
%TD*%
D16*
%TO.P,C1,1*%
%TO.N,/VDD*%
X131887500Y-86150000D03*
%TO.P,C1,2*%
%TO.N,/GND*%
X133612500Y-86150000D03*
%TD*%
D17*
%TO.P,J1,4,Pin_4*%
%TO.N,/VDD*%
X136320000Y-93300000D03*
%TO.P,J1,3,Pin_3*%
%TO.N,/SCL*%
X133780000Y-93300000D03*
%TO.P,J1,2,Pin_2*%
%TO.N,/SDA*%
X131240000Y-93300000D03*
D18*
%TO.P,J1,1,Pin_1*%
%TO.N,/GND*%
X128700000Y-93300000D03*
%TD*%
D19*
%TO.N,/GND*%
X132500000Y-79650000D03*
X134950000Y-86150000D03*
%TO.N,/SDA*%
X128750000Y-88250000D03*
%TO.N,/SCL*%
X136500000Y-88250000D03*
%TD*%
D20*
%TO.N,/GND*%
X132500000Y-79650000D02*
X132500000Y-82525000D01*
D21*
%TO.N,/SCL*%
X133000000Y-84900000D02*
X133000000Y-84675000D01*
X133225000Y-85125000D02*
X133000000Y-84900000D01*
X135162500Y-84762500D02*
X134800000Y-85125000D01*
X134800000Y-85125000D02*
X133225000Y-85125000D01*
X136300000Y-84762500D02*
X135162500Y-84762500D01*
D20*
%TO.N,/VDD*%
X132000000Y-86037500D02*
X131887500Y-86150000D01*
X132000000Y-84025000D02*
X132000000Y-86037500D01*
X131887500Y-86150000D02*
X132075000Y-85962500D01*
D21*
%TO.N,/SCL*%
X136850000Y-88250000D02*
X136500000Y-88250000D01*
X137525000Y-87575000D02*
X136850000Y-88250000D01*
X137525000Y-85175000D02*
X137525000Y-87575000D01*
X137112500Y-84762500D02*
X137525000Y-85175000D01*
X136300000Y-84762500D02*
X137112500Y-84762500D01*
%TO.N,/VDD*%
X136237500Y-86587500D02*
X135500000Y-87325000D01*
X136300000Y-86587500D02*
X136237500Y-86587500D01*
%TO.N,/GND*%
X133612500Y-86150000D02*
X134950000Y-86150000D01*
X132500000Y-84025000D02*
X132500000Y-82525000D01*
X133500000Y-83525000D02*
X132500000Y-82525000D01*
X134900000Y-86175000D02*
X134950000Y-86225000D01*
X133500000Y-84025000D02*
X133500000Y-83525000D01*
%TO.N,/VDD*%
X131887500Y-86150000D02*
X131887500Y-86637500D01*
X136320000Y-91370000D02*
X136320000Y-93300000D01*
X130700000Y-87337500D02*
X131887500Y-86150000D01*
X135500000Y-87325000D02*
X135500000Y-90550000D01*
X135500000Y-90550000D02*
X136320000Y-91370000D01*
X132575000Y-87325000D02*
X135500000Y-87325000D01*
X131887500Y-86637500D02*
X132575000Y-87325000D01*
X129750000Y-87337500D02*
X130700000Y-87337500D01*
%TO.N,/SDA*%
X130837500Y-85512500D02*
X129750000Y-85512500D01*
D20*
X131500000Y-84025000D02*
X131500000Y-84850000D01*
D21*
X129750000Y-85512500D02*
X128987500Y-85512500D01*
X128987500Y-85512500D02*
X128750000Y-85750000D01*
X128750000Y-85750000D02*
X128750000Y-88250000D01*
X131500000Y-84850000D02*
X130837500Y-85512500D01*
D20*
%TO.N,/SCL*%
X133000000Y-84025000D02*
X133000000Y-84675000D01*
%TD*%
%TA.AperFunction,Conductor*%
%TO.N,/GND*%
G36*
X141942539Y-75520185D02*
G01*
X141988294Y-75572989D01*
X141999500Y-75624500D01*
X141999500Y-94375500D01*
X141979815Y-94442539D01*
X141927011Y-94488294D01*
X141875500Y-94499500D01*
X137329758Y-94499500D01*
X137262719Y-94479815D01*
X137216964Y-94427011D01*
X137207020Y-94357853D01*
X137236045Y-94294297D01*
X137242077Y-94287819D01*
X137272524Y-94257372D01*
X137358495Y-94171401D01*
X137494035Y-93977830D01*
X137593903Y-93763663D01*
X137655063Y-93535408D01*
X137675659Y-93300000D01*
X137655063Y-93064592D01*
X137593903Y-92836337D01*
X137494035Y-92622171D01*
X137488425Y-92614158D01*
X137358494Y-92428597D01*
X137191402Y-92261506D01*
X137191401Y-92261505D01*
X137025776Y-92145533D01*
X136982152Y-92090956D01*
X136972900Y-92043958D01*
X136972900Y-91305692D01*
X136947810Y-91179561D01*
X136947809Y-91179560D01*
X136947809Y-91179556D01*
X136898592Y-91060736D01*
X136835425Y-90966200D01*
X136835424Y-90966198D01*
X136827142Y-90953802D01*
X136827138Y-90953798D01*
X136189219Y-90315878D01*
X136155734Y-90254555D01*
X136152900Y-90228197D01*
X136152900Y-89357089D01*
X136172585Y-89290050D01*
X136225389Y-89244295D01*
X136294547Y-89234351D01*
X136301093Y-89235472D01*
X136303868Y-89236024D01*
X136500000Y-89255341D01*
X136696132Y-89236024D01*
X136884727Y-89178814D01*
X137058538Y-89085910D01*
X137210883Y-88960883D01*
X137335910Y-88808538D01*
X137428814Y-88634727D01*
X137437302Y-88606743D01*
X137468280Y-88555059D01*
X138032140Y-87991200D01*
X138103592Y-87884264D01*
X138152809Y-87765444D01*
X138157301Y-87742860D01*
X138177900Y-87639305D01*
X138177900Y-85110695D01*
X138177900Y-85110692D01*
X138152810Y-84984561D01*
X138152809Y-84984560D01*
X138152809Y-84984556D01*
X138103592Y-84865736D01*
X138060771Y-84801650D01*
X138032140Y-84758800D01*
X138032138Y-84758797D01*
X138032135Y-84758794D01*
X137528705Y-84255363D01*
X137528704Y-84255362D01*
X137528700Y-84255359D01*
X137421764Y-84183908D01*
X137400253Y-84174998D01*
X137302944Y-84134691D01*
X137302939Y-84134689D01*
X137206170Y-84115440D01*
X137144260Y-84083054D01*
X137124825Y-84058922D01*
X137123835Y-84057317D01*
X137120340Y-84051650D01*
X136998350Y-83929660D01*
X136875759Y-83854045D01*
X136851518Y-83839093D01*
X136851513Y-83839091D01*
X136819790Y-83828579D01*
X136687753Y-83784826D01*
X136687751Y-83784825D01*
X136586678Y-83774500D01*
X136013330Y-83774500D01*
X136013312Y-83774501D01*
X135912247Y-83784825D01*
X135748484Y-83839092D01*
X135748481Y-83839093D01*
X135601648Y-83929661D01*
X135479660Y-84051649D01*
X135475179Y-84057317D01*
X135473960Y-84056353D01*
X135428295Y-84097424D01*
X135374709Y-84109600D01*
X135098193Y-84109600D01*
X134972061Y-84134689D01*
X134972055Y-84134691D01*
X134853237Y-84183907D01*
X134746297Y-84255361D01*
X134746296Y-84255362D01*
X134565879Y-84435781D01*
X134504556Y-84469266D01*
X134478198Y-84472100D01*
X134239658Y-84472100D01*
X134172619Y-84452415D01*
X134126864Y-84399611D01*
X134116920Y-84330453D01*
X134119242Y-84318501D01*
X134119544Y-84317268D01*
X134139999Y-84174998D01*
X134140000Y-84174997D01*
X134140000Y-83992990D01*
X134138414Y-83954582D01*
X134139166Y-83951564D01*
X134133866Y-83914473D01*
X134143869Y-83845323D01*
X134157960Y-83821816D01*
X134173562Y-83801323D01*
X134174564Y-83799879D01*
X134198139Y-83762520D01*
X134206149Y-83748501D01*
X134219721Y-83723093D01*
X134220223Y-83722086D01*
X134232357Y-83695870D01*
X134238379Y-83681819D01*
X134242751Y-83671287D01*
X134242957Y-83670776D01*
X134247212Y-83659820D01*
X134250201Y-83651849D01*
X134256958Y-83632668D01*
X134257194Y-83631952D01*
X134263186Y-83612477D01*
X134265179Y-83605502D01*
X134267511Y-83597060D01*
X134267599Y-83596729D01*
X134269622Y-83588910D01*
X134271624Y-83580900D01*
X134278061Y-83551435D01*
X134278287Y-83550230D01*
X134283021Y-83519885D01*
X134283327Y-83517441D01*
X134283621Y-83515246D01*
X134283832Y-83513770D01*
X134284189Y-83511233D01*
X134285017Y-83504922D01*
X134286022Y-83496884D01*
X134288953Y-83465517D01*
X134289029Y-83464299D01*
X134290000Y-83433013D01*
X134290000Y-81616986D01*
X134289029Y-81585700D01*
X134288953Y-81584482D01*
X134286022Y-81553115D01*
X134285017Y-81545077D01*
X134284189Y-81538767D01*
X134283841Y-81536296D01*
X134283619Y-81534742D01*
X134283327Y-81532562D01*
X134283019Y-81530100D01*
X134278287Y-81499769D01*
X134278061Y-81498564D01*
X134271624Y-81469099D01*
X134269622Y-81461089D01*
X134267599Y-81453270D01*
X134267511Y-81452939D01*
X134265179Y-81444497D01*
X134263186Y-81437522D01*
X134257194Y-81418047D01*
X134256958Y-81417331D01*
X134250201Y-81398150D01*
X134247212Y-81390179D01*
X134242957Y-81379223D01*
X134242751Y-81378712D01*
X134238379Y-81368180D01*
X134232357Y-81354129D01*
X134220223Y-81327913D01*
X134219721Y-81326906D01*
X134206149Y-81301498D01*
X134198139Y-81287479D01*
X134174562Y-81250117D01*
X134173562Y-81248677D01*
X134152821Y-81221431D01*
X134151839Y-81220124D01*
X134140782Y-81205196D01*
X134139531Y-81203670D01*
X134129718Y-81192839D01*
X134127574Y-81190372D01*
X134127569Y-81190377D01*
X134126621Y-81189291D01*
X134111668Y-81172917D01*
X134111343Y-81172560D01*
X134106182Y-81166865D01*
X134106077Y-81166754D01*
X134104296Y-81164844D01*
X134095782Y-81155521D01*
X134095751Y-81155488D01*
X134094511Y-81154248D01*
X134094497Y-81154235D01*
X134085174Y-81145721D01*
X134083306Y-81143979D01*
X134083159Y-81143839D01*
X134077592Y-81138795D01*
X134077234Y-81138469D01*
X134060703Y-81123373D01*
X134059659Y-81122462D01*
X134059663Y-81122457D01*
X134057167Y-81120288D01*
X134046347Y-81110484D01*
X134046330Y-81110469D01*
X134044813Y-81109225D01*
X134044796Y-81109212D01*
X134029888Y-81098170D01*
X134028579Y-81097187D01*
X134001325Y-81076438D01*
X133999882Y-81075437D01*
X133962520Y-81051860D01*
X133948501Y-81043850D01*
X133923093Y-81030278D01*
X133922086Y-81029776D01*
X133895870Y-81017642D01*
X133881819Y-81011620D01*
X133871287Y-81007248D01*
X133870776Y-81007042D01*
X133859820Y-81002787D01*
X133851849Y-80999798D01*
X133832668Y-80993041D01*
X133831952Y-80992805D01*
X133812477Y-80986813D01*
X133805502Y-80984820D01*
X133797060Y-80982488D01*
X133796729Y-80982400D01*
X133788910Y-80980377D01*
X133780900Y-80978375D01*
X133751435Y-80971938D01*
X133750230Y-80971712D01*
X133719855Y-80966973D01*
X133717413Y-80966668D01*
X133715323Y-80966389D01*
X133713945Y-80966192D01*
X133713945Y-80966193D01*
X133711246Y-80965812D01*
X133704922Y-80964982D01*
X133696884Y-80963977D01*
X133665517Y-80961046D01*
X133664299Y-80960970D01*
X133633013Y-80960000D01*
X131366987Y-80960000D01*
X131335700Y-80960970D01*
X131334482Y-80961046D01*
X131303115Y-80963977D01*
X131295077Y-80964982D01*
X131288753Y-80965812D01*
X131286218Y-80966169D01*
X131286219Y-80966170D01*
X131284665Y-80966391D01*
X131282590Y-80966668D01*
X131280130Y-80966975D01*
X131249769Y-80971712D01*
X131248564Y-80971938D01*
X131219099Y-80978375D01*
X131211089Y-80980377D01*
X131203270Y-80982400D01*
X131202939Y-80982488D01*
X131194497Y-80984820D01*
X131187522Y-80986813D01*
X131168047Y-80992805D01*
X131167331Y-80993041D01*
X131148150Y-80999798D01*
X131140179Y-81002787D01*
X131129223Y-81007042D01*
X131128712Y-81007248D01*
X131118180Y-81011620D01*
X131104129Y-81017642D01*
X131077913Y-81029776D01*
X131076906Y-81030278D01*
X131051498Y-81043850D01*
X131037479Y-81051860D01*
X131000130Y-81075429D01*
X130998668Y-81076443D01*
X130971451Y-81097163D01*
X130970152Y-81098139D01*
X130955195Y-81109217D01*
X130953678Y-81110461D01*
X130942818Y-81120301D01*
X130940362Y-81122434D01*
X130940367Y-81122439D01*
X130939294Y-81123375D01*
X130922771Y-81138464D01*
X130922424Y-81138780D01*
X130916796Y-81143879D01*
X130916610Y-81144057D01*
X130914837Y-81145708D01*
X130905519Y-81154218D01*
X130904218Y-81155519D01*
X130895708Y-81164837D01*
X130894057Y-81166610D01*
X130893879Y-81166796D01*
X130888780Y-81172424D01*
X130888464Y-81172771D01*
X130873375Y-81189294D01*
X130872439Y-81190367D01*
X130872434Y-81190362D01*
X130870301Y-81192818D01*
X130860461Y-81203678D01*
X130859217Y-81205195D01*
X130848139Y-81220152D01*
X130847163Y-81221451D01*
X130826443Y-81248668D01*
X130825429Y-81250130D01*
X130801860Y-81287479D01*
X130793850Y-81301498D01*
X130780278Y-81326906D01*
X130779776Y-81327913D01*
X130767642Y-81354129D01*
X130761620Y-81368180D01*
X130757248Y-81378712D01*
X130757042Y-81379223D01*
X130752787Y-81390179D01*
X130749798Y-81398150D01*
X130743041Y-81417331D01*
X130742805Y-81418047D01*
X130736813Y-81437522D01*
X130734820Y-81444497D01*
X130732488Y-81452939D01*
X130732400Y-81453270D01*
X130730377Y-81461089D01*
X130728375Y-81469099D01*
X130721938Y-81498564D01*
X130721712Y-81499769D01*
X130716975Y-81530130D01*
X130716668Y-81532590D01*
X130716391Y-81534665D01*
X130716170Y-81536219D01*
X130715811Y-81538767D01*
X130714982Y-81545077D01*
X130713977Y-81553115D01*
X130711046Y-81584482D01*
X130710970Y-81585700D01*
X130710000Y-81616986D01*
X130710000Y-83433013D01*
X130710970Y-83464299D01*
X130711046Y-83465517D01*
X130713977Y-83496884D01*
X130714982Y-83504922D01*
X130715811Y-83511233D01*
X130716168Y-83513770D01*
X130716389Y-83515323D01*
X130716668Y-83517413D01*
X130716973Y-83519855D01*
X130721712Y-83550230D01*
X130721938Y-83551435D01*
X130728375Y-83580900D01*
X130730377Y-83588910D01*
X130732400Y-83596729D01*
X130732488Y-83597060D01*
X130734820Y-83605502D01*
X130736813Y-83612477D01*
X130742805Y-83631952D01*
X130743041Y-83632668D01*
X130749798Y-83651849D01*
X130752787Y-83659820D01*
X130757042Y-83670776D01*
X130757248Y-83671287D01*
X130761620Y-83681819D01*
X130767642Y-83695870D01*
X130779776Y-83722086D01*
X130780278Y-83723093D01*
X130793850Y-83748501D01*
X130801860Y-83762520D01*
X130825437Y-83799882D01*
X130826438Y-83801325D01*
X130847187Y-83828579D01*
X130848170Y-83829888D01*
X130859212Y-83844796D01*
X130859225Y-83844813D01*
X130860469Y-83846330D01*
X130860479Y-83846341D01*
X130867459Y-83854045D01*
X130897884Y-83916942D01*
X130898250Y-83937816D01*
X130899500Y-83937816D01*
X130899500Y-84475797D01*
X130879815Y-84542836D01*
X130863181Y-84563478D01*
X130685355Y-84741303D01*
X130624032Y-84774788D01*
X130554340Y-84769804D01*
X130509993Y-84741303D01*
X130448351Y-84679661D01*
X130448350Y-84679660D01*
X130301516Y-84589092D01*
X130137753Y-84534826D01*
X130137751Y-84534825D01*
X130036678Y-84524500D01*
X129463330Y-84524500D01*
X129463312Y-84524501D01*
X129362247Y-84534825D01*
X129198484Y-84589092D01*
X129198481Y-84589093D01*
X129051651Y-84679659D01*
X128929660Y-84801649D01*
X128918179Y-84820262D01*
X128866229Y-84866984D01*
X128836837Y-84876777D01*
X128797058Y-84884690D01*
X128797057Y-84884690D01*
X128743719Y-84906784D01*
X128678236Y-84933907D01*
X128571298Y-85005360D01*
X128571295Y-85005363D01*
X128242863Y-85333794D01*
X128242863Y-85333795D01*
X128242860Y-85333798D01*
X128242859Y-85333800D01*
X128188338Y-85415399D01*
X128188336Y-85415401D01*
X128171412Y-85440728D01*
X128171406Y-85440738D01*
X128122191Y-85559555D01*
X128122189Y-85559561D01*
X128097100Y-85685692D01*
X128097100Y-87432884D01*
X128077415Y-87499923D01*
X128051766Y-87528736D01*
X128039114Y-87539118D01*
X127914090Y-87691460D01*
X127914086Y-87691467D01*
X127821188Y-87865266D01*
X127763975Y-88053870D01*
X127744659Y-88250000D01*
X127763975Y-88446129D01*
X127821188Y-88634733D01*
X127914086Y-88808532D01*
X127914090Y-88808539D01*
X128039116Y-88960883D01*
X128191460Y-89085909D01*
X128191467Y-89085913D01*
X128365266Y-89178811D01*
X128365269Y-89178811D01*
X128365273Y-89178814D01*
X128553868Y-89236024D01*
X128750000Y-89255341D01*
X128946132Y-89236024D01*
X129134727Y-89178814D01*
X129308538Y-89085910D01*
X129460883Y-88960883D01*
X129585910Y-88808538D01*
X129678814Y-88634727D01*
X129736024Y-88446132D01*
X129736889Y-88437348D01*
X129763047Y-88372561D01*
X129820080Y-88332200D01*
X129860292Y-88325499D01*
X130036670Y-88325499D01*
X130036676Y-88325499D01*
X130137753Y-88315174D01*
X130301516Y-88260908D01*
X130448350Y-88170340D01*
X130570340Y-88048350D01*
X130570343Y-88048344D01*
X130574821Y-88042683D01*
X130576039Y-88043646D01*
X130621705Y-88002576D01*
X130675291Y-87990400D01*
X130764307Y-87990400D01*
X130849165Y-87973519D01*
X130890444Y-87965309D01*
X131009264Y-87916092D01*
X131116200Y-87844641D01*
X131556069Y-87404769D01*
X131617390Y-87371286D01*
X131687082Y-87376270D01*
X131731430Y-87404771D01*
X132158798Y-87832139D01*
X132262627Y-87901515D01*
X132265735Y-87903592D01*
X132314952Y-87923977D01*
X132384556Y-87952809D01*
X132384560Y-87952809D01*
X132384561Y-87952810D01*
X132510692Y-87977900D01*
X132510695Y-87977900D01*
X134723100Y-87977900D01*
X134790139Y-87997585D01*
X134835894Y-88050389D01*
X134847100Y-88101900D01*
X134847100Y-90614307D01*
X134867547Y-90717096D01*
X134867547Y-90717097D01*
X134872189Y-90740437D01*
X134872190Y-90740441D01*
X134872191Y-90740444D01*
X134921408Y-90859264D01*
X134984574Y-90953800D01*
X134992862Y-90966204D01*
X134992863Y-90966205D01*
X135630781Y-91604121D01*
X135664266Y-91665444D01*
X135667100Y-91691802D01*
X135667100Y-92043959D01*
X135647415Y-92110998D01*
X135614223Y-92145534D01*
X135448597Y-92261505D01*
X135281505Y-92428597D01*
X135151575Y-92614158D01*
X135096998Y-92657783D01*
X135027500Y-92664977D01*
X134965145Y-92633454D01*
X134948425Y-92614158D01*
X134818494Y-92428597D01*
X134651402Y-92261506D01*
X134651395Y-92261501D01*
X134457834Y-92125967D01*
X134457830Y-92125965D01*
X134382753Y-92090956D01*
X134243663Y-92026097D01*
X134243659Y-92026096D01*
X134243655Y-92026094D01*
X134015413Y-91964938D01*
X134015403Y-91964936D01*
X133780001Y-91944341D01*
X133779999Y-91944341D01*
X133544596Y-91964936D01*
X133544586Y-91964938D01*
X133316344Y-92026094D01*
X133316335Y-92026098D01*
X133102171Y-92125964D01*
X133102169Y-92125965D01*
X132908597Y-92261505D01*
X132741505Y-92428597D01*
X132611575Y-92614158D01*
X132556998Y-92657783D01*
X132487500Y-92664977D01*
X132425145Y-92633454D01*
X132408425Y-92614158D01*
X132278494Y-92428597D01*
X132111402Y-92261506D01*
X132111395Y-92261501D01*
X131917834Y-92125967D01*
X131917830Y-92125965D01*
X131842753Y-92090956D01*
X131703663Y-92026097D01*
X131703659Y-92026096D01*
X131703655Y-92026094D01*
X131475413Y-91964938D01*
X131475403Y-91964936D01*
X131240001Y-91944341D01*
X131239999Y-91944341D01*
X131004596Y-91964936D01*
X131004586Y-91964938D01*
X130776344Y-92026094D01*
X130776335Y-92026098D01*
X130562171Y-92125964D01*
X130562169Y-92125965D01*
X130368600Y-92261503D01*
X130246284Y-92383819D01*
X130184961Y-92417303D01*
X130115269Y-92412319D01*
X130059336Y-92370447D01*
X130042421Y-92339470D01*
X129993354Y-92207913D01*
X129993350Y-92207906D01*
X129907190Y-92092812D01*
X129907187Y-92092809D01*
X129792093Y-92006649D01*
X129792086Y-92006645D01*
X129657379Y-91956403D01*
X129657372Y-91956401D01*
X129597844Y-91950000D01*
X128950000Y-91950000D01*
X128950000Y-92866988D01*
X128892993Y-92834075D01*
X128765826Y-92800000D01*
X128634174Y-92800000D01*
X128507007Y-92834075D01*
X128450000Y-92866988D01*
X128450000Y-91950000D01*
X127802155Y-91950000D01*
X127742627Y-91956401D01*
X127742620Y-91956403D01*
X127607913Y-92006645D01*
X127607906Y-92006649D01*
X127492812Y-92092809D01*
X127492809Y-92092812D01*
X127406649Y-92207906D01*
X127406645Y-92207913D01*
X127356403Y-92342620D01*
X127356401Y-92342627D01*
X127350000Y-92402155D01*
X127350000Y-93050000D01*
X128266988Y-93050000D01*
X128234075Y-93107007D01*
X128200000Y-93234174D01*
X128200000Y-93365826D01*
X128234075Y-93492993D01*
X128266988Y-93550000D01*
X127350000Y-93550000D01*
X127350000Y-94197844D01*
X127356401Y-94257372D01*
X127356403Y-94257379D01*
X127384297Y-94332167D01*
X127389281Y-94401859D01*
X127355796Y-94463182D01*
X127294473Y-94496666D01*
X127268115Y-94499500D01*
X123124500Y-94499500D01*
X123057461Y-94479815D01*
X123011706Y-94427011D01*
X123000500Y-94375500D01*
X123000500Y-80549997D01*
X134494751Y-80549997D01*
X134494751Y-80550002D01*
X134513685Y-80718056D01*
X134569545Y-80877694D01*
X134569547Y-80877697D01*
X134659518Y-81020884D01*
X134659523Y-81020890D01*
X134779109Y-81140476D01*
X134779115Y-81140481D01*
X134922302Y-81230452D01*
X134922305Y-81230454D01*
X134922309Y-81230455D01*
X134922310Y-81230456D01*
X134994913Y-81255860D01*
X135081943Y-81286314D01*
X135249997Y-81305249D01*
X135250000Y-81305249D01*
X135250003Y-81305249D01*
X135418056Y-81286314D01*
X135418059Y-81286313D01*
X135577690Y-81230456D01*
X135577692Y-81230454D01*
X135577694Y-81230454D01*
X135577697Y-81230452D01*
X135720884Y-81140481D01*
X135720885Y-81140480D01*
X135720890Y-81140477D01*
X135840477Y-81020890D01*
X135849049Y-81007248D01*
X135930452Y-80877697D01*
X135930454Y-80877694D01*
X135930454Y-80877692D01*
X135930456Y-80877690D01*
X135986313Y-80718059D01*
X135986313Y-80718058D01*
X135986314Y-80718056D01*
X136005249Y-80550002D01*
X136005249Y-80549997D01*
X135986314Y-80381943D01*
X135930454Y-80222305D01*
X135930452Y-80222302D01*
X135840481Y-80079115D01*
X135840476Y-80079109D01*
X135720890Y-79959523D01*
X135720884Y-79959518D01*
X135577697Y-79869547D01*
X135577694Y-79869545D01*
X135418056Y-79813685D01*
X135250003Y-79794751D01*
X135249997Y-79794751D01*
X135081943Y-79813685D01*
X134922305Y-79869545D01*
X134922302Y-79869547D01*
X134779115Y-79959518D01*
X134779109Y-79959523D01*
X134659523Y-80079109D01*
X134659518Y-80079115D01*
X134569547Y-80222302D01*
X134569545Y-80222305D01*
X134513685Y-80381943D01*
X134494751Y-80549997D01*
X123000500Y-80549997D01*
X123000500Y-77878711D01*
X123649500Y-77878711D01*
X123649500Y-78121288D01*
X123681161Y-78361785D01*
X123743947Y-78596104D01*
X123836773Y-78820205D01*
X123836776Y-78820212D01*
X123958064Y-79030289D01*
X123958066Y-79030292D01*
X123958067Y-79030293D01*
X124105733Y-79222736D01*
X124105739Y-79222743D01*
X124277256Y-79394260D01*
X124277262Y-79394265D01*
X124469711Y-79541936D01*
X124679788Y-79663224D01*
X124903900Y-79756054D01*
X125138211Y-79818838D01*
X125318586Y-79842584D01*
X125378711Y-79850500D01*
X125378712Y-79850500D01*
X125621289Y-79850500D01*
X125669388Y-79844167D01*
X125861789Y-79818838D01*
X126096100Y-79756054D01*
X126320212Y-79663224D01*
X126530289Y-79541936D01*
X126722738Y-79394265D01*
X126894265Y-79222738D01*
X127041936Y-79030289D01*
X127163224Y-78820212D01*
X127256054Y-78596100D01*
X127318838Y-78361789D01*
X127350500Y-78121288D01*
X127350500Y-77878712D01*
X127350500Y-77878711D01*
X137649500Y-77878711D01*
X137649500Y-78121288D01*
X137681161Y-78361785D01*
X137743947Y-78596104D01*
X137836773Y-78820205D01*
X137836776Y-78820212D01*
X137958064Y-79030289D01*
X137958066Y-79030292D01*
X137958067Y-79030293D01*
X138105733Y-79222736D01*
X138105739Y-79222743D01*
X138277256Y-79394260D01*
X138277262Y-79394265D01*
X138469711Y-79541936D01*
X138679788Y-79663224D01*
X138903900Y-79756054D01*
X139138211Y-79818838D01*
X139318586Y-79842584D01*
X139378711Y-79850500D01*
X139378712Y-79850500D01*
X139621289Y-79850500D01*
X139669388Y-79844167D01*
X139861789Y-79818838D01*
X140096100Y-79756054D01*
X140320212Y-79663224D01*
X140530289Y-79541936D01*
X140722738Y-79394265D01*
X140894265Y-79222738D01*
X141041936Y-79030289D01*
X141163224Y-78820212D01*
X141256054Y-78596100D01*
X141318838Y-78361789D01*
X141350500Y-78121288D01*
X141350500Y-77878712D01*
X141318838Y-77638211D01*
X141256054Y-77403900D01*
X141163224Y-77179788D01*
X141041936Y-76969711D01*
X140894265Y-76777262D01*
X140894260Y-76777256D01*
X140722743Y-76605739D01*
X140722736Y-76605733D01*
X140530293Y-76458067D01*
X140530292Y-76458066D01*
X140530289Y-76458064D01*
X140320212Y-76336776D01*
X140320205Y-76336773D01*
X140096104Y-76243947D01*
X139861785Y-76181161D01*
X139621289Y-76149500D01*
X139621288Y-76149500D01*
X139378712Y-76149500D01*
X139378711Y-76149500D01*
X139138214Y-76181161D01*
X138903895Y-76243947D01*
X138679794Y-76336773D01*
X138679785Y-76336777D01*
X138469706Y-76458067D01*
X138277263Y-76605733D01*
X138277256Y-76605739D01*
X138105739Y-76777256D01*
X138105733Y-76777263D01*
X137958067Y-76969706D01*
X137836777Y-77179785D01*
X137836773Y-77179794D01*
X137743947Y-77403895D01*
X137681161Y-77638214D01*
X137649500Y-77878711D01*
X127350500Y-77878711D01*
X127318838Y-77638211D01*
X127256054Y-77403900D01*
X127163224Y-77179788D01*
X127041936Y-76969711D01*
X126894265Y-76777262D01*
X126894260Y-76777256D01*
X126722743Y-76605739D01*
X126722736Y-76605733D01*
X126530293Y-76458067D01*
X126530292Y-76458066D01*
X126530289Y-76458064D01*
X126320212Y-76336776D01*
X126320205Y-76336773D01*
X126096104Y-76243947D01*
X125861785Y-76181161D01*
X125621289Y-76149500D01*
X125621288Y-76149500D01*
X125378712Y-76149500D01*
X125378711Y-76149500D01*
X125138214Y-76181161D01*
X124903895Y-76243947D01*
X124679794Y-76336773D01*
X124679785Y-76336777D01*
X124469706Y-76458067D01*
X124277263Y-76605733D01*
X124277256Y-76605739D01*
X124105739Y-76777256D01*
X124105733Y-76777263D01*
X123958067Y-76969706D01*
X123836777Y-77179785D01*
X123836773Y-77179794D01*
X123743947Y-77403895D01*
X123681161Y-77638214D01*
X123649500Y-77878711D01*
X123000500Y-77878711D01*
X123000500Y-75624500D01*
X123020185Y-75557461D01*
X123072989Y-75511706D01*
X123124500Y-75500500D01*
X141875500Y-75500500D01*
X141942539Y-75520185D01*
G37*
%TD.AperFunction*%
%TA.AperFunction,Conductor*%
G36*
X135470658Y-85480195D02*
G01*
X135515006Y-85508696D01*
X135593629Y-85587319D01*
X135627114Y-85648642D01*
X135622130Y-85718334D01*
X135593629Y-85762681D01*
X135479661Y-85876648D01*
X135389093Y-86023481D01*
X135389092Y-86023484D01*
X135334826Y-86187247D01*
X135334826Y-86187248D01*
X135334825Y-86187248D01*
X135324500Y-86288315D01*
X135324500Y-86525795D01*
X135304815Y-86592834D01*
X135288183Y-86613474D01*
X135265879Y-86635779D01*
X135204557Y-86669266D01*
X135178196Y-86672100D01*
X134763259Y-86672100D01*
X134696220Y-86652415D01*
X134650465Y-86599611D01*
X134639901Y-86535497D01*
X134649999Y-86436654D01*
X134650000Y-86436641D01*
X134650000Y-86400000D01*
X133736500Y-86400000D01*
X133669461Y-86380315D01*
X133623706Y-86327511D01*
X133612500Y-86276000D01*
X133612500Y-86024000D01*
X133632185Y-85956961D01*
X133684989Y-85911206D01*
X133736500Y-85900000D01*
X134649999Y-85900000D01*
X134650788Y-85899210D01*
X134669684Y-85834861D01*
X134722488Y-85789106D01*
X134773999Y-85777900D01*
X134864307Y-85777900D01*
X134949165Y-85761019D01*
X134990444Y-85752809D01*
X135109264Y-85703592D01*
X135136049Y-85685695D01*
X135216200Y-85632141D01*
X135339647Y-85508693D01*
X135400966Y-85475211D01*
X135470658Y-85480195D01*
G37*
%TD.AperFunction*%
%TD*%
M02*
